<svg width="130" height="152" fill="none" xmlns="http://www.w3.org/2000/svg"><path d="M51.02 42.767s20.404-11.08 13.592-21.156c-4.976-7.36-13.683-.396-13.683-.396s-8.628-6.921-13.592.396c-7.081 10.436 13.592 21.156 13.592 21.156h.09zm-8.3 105.969l2.328-86.638a8.565 8.565 0 013.136-6.035l2.748-2.24 2.623 1.81a8.568 8.568 0 013.687 6.488l3.17 86.615M50.93 52.782v-8.013m27.59 103.967l2.167-60.801a8.565 8.565 0 013.137-6.035l2.747-2.24 2.624 1.81a8.568 8.568 0 013.686 6.488l4.163 60.778M78.298 64.12c-4.649-7.77 4.51-16.86 5.827-22.202 1.026-4.161 0-10.129 0-10.129 9.559 7.545 10.962 14.777 7.423 20.606l7.215-4.995c2.753 18.738-5.788 22.336-10.962 22.27-3.066-.038-6.955-1.287-9.505-5.55h.002zm8.948 14.499v-8.013" stroke="#fff" stroke-width="5" stroke-linecap="round" stroke-linejoin="round"/><path d="M21.135 108.695C9.93 97.492 3 82.013 3 64.915 3 30.722 30.72 3 64.916 3 99.11 3 126.83 30.72 126.83 64.914c0 17.098-6.93 32.576-18.135 43.781" stroke="#fff" stroke-width="5" stroke-linecap="round" stroke-linejoin="round"/></svg>