<svg width="149" height="150" fill="none" xmlns="http://www.w3.org/2000/svg"><path d="M99.266 109.506s33.793-18.35 22.51-35.039c-8.241-12.187-22.66-.656-22.66-.656s-14.29-11.462-22.511.656c-11.727 17.283 22.51 35.039 22.51 35.039h.15z" stroke="#fff" stroke-width="5" stroke-miterlimit="10"/><path d="M135.292 40.19H62.414c-6.114 0-11.07 4.956-11.07 11.07v84.411c0 6.114 4.956 11.071 11.07 11.071h72.878c6.114 0 11.07-4.957 11.07-11.071V51.26c0-6.114-4.956-11.07-11.07-11.07z" stroke="#fff" stroke-width="5" stroke-miterlimit="10"/><path d="M134.576 51.723H63.125v68.192h71.451V51.723z" stroke="#fff" stroke-width="5" stroke-miterlimit="10"/><path d="M51.388 119.915l-18.084 4.023a8.852 8.852 0 01-10.563-6.719L3.45 30.491a8.852 8.852 0 016.719-10.562L85.639 3.14a8.852 8.852 0 0110.563 6.72l6.747 30.33" stroke="#fff" stroke-width="5" stroke-miterlimit="10"/><path d="M51.342 92.445L30.34 97.116 15.533 30.551 85.28 15.036l5.597 25.154" stroke="#fff" stroke-width="5" stroke-miterlimit="10"/></svg>