<svg width="143" height="124" fill="none" xmlns="http://www.w3.org/2000/svg"><path d="M120.659 17.939h6.702c6.75 0 12.22 5.47 12.22 12.22v78.945c0 6.75-5.47 12.22-12.22 12.22H15.634c-6.75 0-12.22-5.47-12.22-12.22V30.159c0-6.75 5.47-12.22 12.22-12.22h6.728m11.773 0h74.393" stroke="#fff" stroke-width="5" stroke-miterlimit="10"/><path d="M34.062 8.726a5.916 5.916 0 10-11.831 0V28.51a5.916 5.916 0 1011.83 0V8.726zm86.279 0a5.916 5.916 0 10-11.831 0V28.51a5.916 5.916 0 1011.831 0V8.726zm-22.11 95.53s36.108-19.607 24.052-37.436c-8.804-13.022-24.211-.7-24.211-.7s-15.267-12.246-24.052.7c-12.528 18.464 24.052 37.436 24.052 37.436h.16z" stroke="#fff" stroke-width="5" stroke-miterlimit="10"/><path d="M97.095 65.405c1.63-4.3 1.591-8.811-1.386-13.218-8.804-13.022-24.212-.699-24.212-.699s-15.267-12.246-24.051.7C34.918 70.65 71.497 89.623 71.497 89.623h.16s1.837-.998 4.545-2.749" stroke="#fff" stroke-width="5" stroke-miterlimit="10"/></svg>