<svg width="82" height="136" fill="none" xmlns="http://www.w3.org/2000/svg"><path d="M78.83 45.52c-4.102 1.965-6.876 4.182-6.876 4.182S51.259 33.1 39.352 50.65c-16.983 25.028 32.602 50.744 32.602 50.744h.217s2.539-1.38 6.27-3.795" stroke="#fff" stroke-width="5" stroke-miterlimit="10"/><path d="M68.594 3H13.23C7.58 3 3 7.58 3 13.23v109.123c0 5.65 4.58 10.23 10.23 10.23h55.364c5.65 0 10.23-4.58 10.23-10.23V13.23c0-5.65-4.58-10.23-10.23-10.23z" stroke="#fff" stroke-width="5" stroke-miterlimit="10"/><path d="M69.418 13.03H12.406A9.406 9.406 0 003 22.434v90.712a9.406 9.406 0 009.406 9.406h57.012a9.406 9.406 0 009.406-9.406V22.435a9.406 9.406 0 00-9.406-9.406z" stroke="#fff" stroke-width="5" stroke-miterlimit="10"/><path d="M15.17 109.716h28.083" stroke="#fff" stroke-width="5" stroke-linecap="round" stroke-linejoin="round"/></svg>