<svg width="149" height="149" fill="none" xmlns="http://www.w3.org/2000/svg"><path d="M74.5 146c39.488 0 71.5-32.012 71.5-71.5S113.988 3 74.5 3 3 35.012 3 74.5 35.012 146 74.5 146z" stroke="#fff" stroke-width="5" stroke-linecap="round" stroke-linejoin="bevel"/><path d="M117.578 95.373c-10.109 14.481-27.118 23.981-46.398 23.981-13.383 0-25.669-4.578-35.317-12.22M48.388 72.28S68.825 61.446 62.005 51.6c-4.983-7.195-13.71-.39-13.71-.39s-8.643-6.763-13.616.39c-7.092 10.203 13.616 20.68 13.616 20.68h.093zm53.291 0s20.437-10.833 13.617-20.68c-4.983-7.195-13.71-.39-13.71-.39s-8.642-6.763-13.616.39c-7.092 10.203 13.616 20.68 13.616 20.68h.093z" stroke="#fff" stroke-width="5" stroke-linecap="round" stroke-linejoin="bevel"/></svg>