<svg width="138" height="111" fill="none" xmlns="http://www.w3.org/2000/svg"><path d="M107.704 79.065c-22.826-15.007-41.255-28.808-55.792-43.04-17.69-17.315-30.082-2.017-20.907 10.95 8.575 12.117 30.253 29.778 58.69 46.688" stroke="#fff" stroke-width="5" stroke-linecap="round" stroke-linejoin="round"/><path d="M117.652 70.256C94.524 54.236 75.878 41.336 61.23 27.72 30.093-1.226 8.834 26.78 16.772 45.59c8.643 20.473 41.274 43.433 62.971 56.126m50.066-84.966c-5.639-4.048-10.693-7.782-15.282-11.323m20.126 30.693c-17.947-12.515-31.25-22.338-42.073-31.826m39.376 45.82C108.848 34.108 92.392 22.036 79.176 9.75" stroke="#fff" stroke-width="5" stroke-linecap="round" stroke-linejoin="round"/><path d="M125.432 61.443C101.831 45.114 84.422 32.418 70.3 19.289 28.739-19.347-7.514 18.817 5.8 50.36c9.463 22.417 40.37 44.125 63.185 57.879M39.443 41.06C52.038 52.89 69.921 69.124 98.89 86.616" stroke="#fff" stroke-width="5" stroke-linecap="round" stroke-linejoin="round"/></svg>