<svg width="293" height="145" fill="none" xmlns="http://www.w3.org/2000/svg"><path fill-rule="evenodd" clip-rule="evenodd" d="M169.764 26.181l-.006.01c.006-.003.012-.01.018-.013h-.012v.003zm-6.462 2.811c-5.931 4.218 2.446 11.566 4.534 16.514 1.862 4.58 1.277 7.83-.698 11.568-.695 1.203-1.742 2.412-2.205 3.498 2.205-1.81 4.532-4.704 5.696-6.995 1.16-2.53 1.16-4.58 0-7.95-1.748-5.066-10.702-13.14-7.327-16.635zm23.918 20.243c6.121-9.927 10.134-19.779 8.216-28.846-5.433-25.676-39.858-26.174-51.813-6.7C117.369-.164 89.787 31.205 113.321 56.4c12.479 13.362 31.445 22.707 48.003 29.959 5.543-9.521 16.352-23.588 23.653-34.142 7.958 6.107 0 16.598-9.247 18.075.294 1.004 1.289 1.004 1.516 1.174 13.643-3.012 19.72-16.399 9.971-22.231h.003zm-24.957 32.76s-3.299-.847-8.267-2.656c.302.034.686.08.686.08a7.758 7.758 0 011.051-1.444l1.858-2.541a17.092 17.092 0 001.749-2.654c.927-1.685 1.972-4.459 1.276-6.989-1.631-5.903-7.909.242-10.814 1.324-4.654 1.812-2.676-3.494-3.837-4.218-.698-.12-.698.12-1.28-.241-.116-.72.463-1.324.346-1.927-.116-.603-.928-.603-1.393-.968-.116-1.444.582-2.767-.931-3.25-1.163-.482-2.557-.603-1.862-2.291.699-1.927 2.444-4.221 1.862-6.627-.233-1.206-.931-2.053-1.393-3.015a12.548 12.548 0 01-1.065-7.478c.465-2.167 2.676-8.194 6.047-11.689 13.375-13.863 22.778 3.253 23.375-1.209 1.641-.84 6.525 2.653 7.459 4.221a7.37 7.37 0 01.116 7.113c-.233.241-.465.603-.701.844-1.393 1.2-.466-.12-.815-.965-.116-.359-.349-.962-.811-.841-.233.482 0 2.65 0 3.377 0 2.168-.233 4.338-1.164 6.144-1.745 3.257-1.276 1.927-1.276 5.783 4.066-.643 8.483-.369 10.508 1.335-8.404 14.905-20.724 30.783-20.724 30.783zm22.418-33.948c-2.56-.93-5.887-1.48-10.111-1.54 1.16-1.209 1.509-4.7 1.975-5.909 1.629-4.097 1.399-2.168 3.837-5.3.933-1.206 1.748-2.54 1.515-4.704-.23-3.244-2.091-6.123-4.902-7.573-1.288-.708-3.147-1.085-4.773-1.327-1.05-.12-1.745-.361-2.56.12-2.094 1.328-3.025-1.443-6.167-2.65-15.695-5.668-27.79 13.616-23.95 24.588 1.044 2.882 2.906 3.123 1.861 6.494-.465 1.21-1.05 2.053-1.512 3.015-.481 1.092-1.047 2.638.116 3.256 1.059.483 2.452.603 2.685 1.806.117.845-.349 1.203-.233 1.93.117.603.815.603 1.28.844 0 .724-.465 1.083-.232 2.047.116.724.581.724 1.393.845.713.238.48.965.597 1.809a2.676 2.676 0 00.581 1.685c2.208 3.139 6.976-.72 9.303-2.165.683-.482 2.207-1.326 3.368-.84.934.479 1.399 1.926 1.283 3.37a8.636 8.636 0 01-.934 3.618c-.916 2.05-2.441 4.098-3.601 5.542-.615.637-1.507 1.932-1.784 2.23-12.927-4.75-36.678-15.896-43.54-35.483-5.376-15.347 2.47-28.805 15.248-31.097 8.055-1.444 13.521 1.222 19.392 5.978 2.73-7.202 12.2-13.906 19.393-15.978 12.458-3.485 23.121 5.322 26.453 17.935 1.993 7.54-1.151 17.633-5.981 27.454zM172.95 38.24c3.61-2.36-2.381-4.194-4.084-5.857-1.528-1.553-1.364-2.886-.317-4.577.373-.547.973-1.138 1.209-1.614-1.334.961-2.67 2.36-3.264 3.389-.594 1.129-.457 1.923.531 3.092 1.486 1.757 7.903 3.8 5.925 5.567z" fill="#DC7DA6"/><path d="M52.489 124.45a.496.496 0 00-.502.25c-.354.415-.721.862-1.094 1.338-.36.457-.745.888-1.155 1.296a5.404 5.404 0 01-1.3.972c-.5.256-1.045.382-1.6.372-.628 0-1.084-.188-1.358-.56a3.17 3.17 0 01-.564-1.296 5.399 5.399 0 01-.086-1.494c.037-.495.059-.871.059-1.117a20.522 20.522 0 01.708-5.631 50.856 50.856 0 011.956-5.967 75.189 75.189 0 012.604-5.832 340.342 340.342 0 012.69-5.319 621.307 621.307 0 002.218-4.322 13.52 13.52 0 001.183-2.916 1.044 1.044 0 00-.176-.745 1.156 1.156 0 00-.68-.499 1.383 1.383 0 00-.947.094 2.08 2.08 0 00-.924 1.027 1512.52 1512.52 0 00-5.117 7.37 59.08 59.08 0 00-5.056 8.987 5.347 5.347 0 01-.505-.123 5.59 5.59 0 01-.502-.188l-.059-.123a.168.168 0 00-.117.062 6.71 6.71 0 01-1.953-1.338 11.953 11.953 0 01-1.716-2.051 10.937 10.937 0 01-1.233-2.521 9.908 9.908 0 01-.532-2.86 17.02 17.02 0 01.178-3.856c.826-3.608 2.295-6.398 4.406-8.368a16.642 16.642 0 017.129-4.01 15.71 15.71 0 014.93-.094c1.66.21 3.283.674 4.82 1.367a13.373 13.373 0 013.904 2.676 7.994 7.994 0 012.188 3.887 8.578 8.578 0 01.308 3.24 7.381 7.381 0 01-.74 2.52 5.78 5.78 0 01-1.269 1.711 3.02 3.02 0 01-1.303.745 2.565 2.565 0 01-.65.094 3.574 3.574 0 01-1.094-.123 3.762 3.762 0 01-1.272-.622 4.174 4.174 0 01-1.183-1.461c-.342-.622-.573-.81-.65-.56-.078.33-.056.677.058.994.065.47.182.93.354 1.367.213.561.546 1.063.977 1.465.505.46 1.118.771 1.775.9.902.153 1.83.068 2.692-.249a5.029 5.029 0 002.009-1.183 7.17 7.17 0 001.568-2.112 8.833 8.833 0 00.829-2.831 9.572 9.572 0 00-.207-3.39 12.323 12.323 0 00-2.249-4.042 16.694 16.694 0 00-3.577-3.24 16.338 16.338 0 00-9.378-2.738l-.295-.068a30.377 30.377 0 00-6.83 1.494 23.672 23.672 0 00-6.332 3.204 16.26 16.26 0 00-4.523 4.879 10.57 10.57 0 00-1.42 6.48 12.532 12.532 0 002.394 6.531 15.359 15.359 0 004.88 4.415c.12.085.25.159.385.217.136.062.287.136.444.217a20.599 20.599 0 00-5.53 3.143 36.958 36.958 0 00-4.289 4.075 143.13 143.13 0 00-3.755 4.355 29.904 29.904 0 01-3.904 3.916 17.9 17.9 0 01-4.794 2.835 16.959 16.959 0 01-6.358 1.089c-2.166 0-3.95-.528-5.352-1.588-1.402-1.059-2.101-2.896-2.101-5.507a9.362 9.362 0 01.65-3.454 9.109 9.109 0 011.805-2.89 9.195 9.195 0 012.662-1.992 7.333 7.333 0 013.284-.745c1.408 0 2.81.197 4.169.589 1.362.392 2.711.817 4.051 1.267.318.084.475.039.475-.126s-.139-.35-.413-.557a11.539 11.539 0 00-2.012-.998 16.348 16.348 0 00-2.425-.716 28.325 28.325 0 00-2.634-.434 22.566 22.566 0 00-2.572-.156 11.09 11.09 0 00-3.935.749 11.808 11.808 0 00-3.518 2.06 10.606 10.606 0 00-2.514 3.143 8.553 8.553 0 00-.976 4.072c0 1.827.31 3.33.933 4.509a7.64 7.64 0 002.545 2.832 10 10 0 003.607 1.461c1.368.269 2.758.402 4.15.395 2.724 0 5.06-.424 7.01-1.276a20.286 20.286 0 005.237-3.266 29.895 29.895 0 004.202-4.419 79.688 79.688 0 013.931-4.73 33.485 33.485 0 014.468-4.134 15.904 15.904 0 015.788-2.75l.888.185a50.17 50.17 0 00-2.25 6.997 32.178 32.178 0 00-.887 7.62 7.132 7.132 0 001.094 3.982c.73 1.121 1.904 1.681 3.522 1.681a8.336 8.336 0 004.88-1.555 12.97 12.97 0 003.635-3.858 1.67 1.67 0 00.357-.972 1.545 1.545 0 00-.178-.778.709.709 0 00-.444-.376zm30.735-23.63a7.761 7.761 0 00-4.406 1.37 15.562 15.562 0 00-3.638 3.422c.08-.535.092-1.082.03-1.62a2.987 2.987 0 00-.616-1.555 4.093 4.093 0 00-1.54-1.154 6.574 6.574 0 00-4.14-.246 8.132 8.132 0 00-1.923.778c-.752.414-1.467.904-2.13 1.461a12.346 12.346 0 00-2.1 2.268 2.032 2.032 0 00-.324.806.68.68 0 00.117.499.544.544 0 00.354.217.341.341 0 00.327-.094c.394-.414.817-.871 1.272-1.367.435-.479.897-.926 1.39-1.338.45-.379.936-.713 1.448-.994a3.099 3.099 0 011.51-.405.792.792 0 01.767.498c.166.37.246.771.237 1.18a7.16 7.16 0 01-.176 1.493 10.47 10.47 0 01-.416 1.432L54.6 144.362h5.678l6.744-17.291c0 1.743.4 2.987 1.211 3.732.81.746 2.061 1.118 3.756 1.118a12.408 12.408 0 007.455-2.394 21.514 21.514 0 005.62-6.065c2.998-4.859 4.637-10.506 4.732-16.295-.015-2.278-.548-3.907-1.602-4.883-1.054-.975-2.711-1.464-4.97-1.464zm.656 11.067a43.513 43.513 0 01-1.272 5.122 43.636 43.636 0 01-1.865 4.901 26.136 26.136 0 01-2.335 4.189 13.619 13.619 0 01-2.634 2.916 4.364 4.364 0 01-2.72 1.089c-.684 0-1.103-.214-1.3-.648a3.17 3.17 0 01-.268-1.461 8.494 8.494 0 01.206-1.581c.09-.334.151-.677.179-1.024-.034-.496-.256-.755-.65-.778a5.938 5.938 0 00-1.066.033 2.187 2.187 0 00-.857.217c-.33.146-.65.275-.946.434-.295.159-.52.262-.68.324-.16.061-.198-.01-.12-.217l6.506-16.26a8.102 8.102 0 011.183-1.769 16.734 16.734 0 012.043-2.08 15.047 15.047 0 012.424-1.707 4.845 4.845 0 012.336-.713c.791-.026 1.51.489 1.774 1.273a7.52 7.52 0 01.533 2.948 26.865 26.865 0 01-.471 4.792zm30.205-8.235a7.092 7.092 0 00-2.465-2.116 7.675 7.675 0 00-3.608-.778 13.095 13.095 0 00-7.305 2.178 21.027 21.027 0 00-5.76 5.62 28.26 28.26 0 00-3.787 7.682 26.89 26.89 0 00-1.362 8.274 7.986 7.986 0 00.616 3.266 5.985 5.985 0 001.744 2.3 7.886 7.886 0 002.603 1.367c1.042.324 2.123.483 3.21.476a13.704 13.704 0 006.936-1.908 20.403 20.403 0 005.736-4.976 24.926 24.926 0 003.876-6.875 21.705 21.705 0 001.42-7.636 15.473 15.473 0 00-.434-3.764 8.891 8.891 0 00-1.42-3.11zm-4.141 10.107a37.972 37.972 0 01-.946 4.105 42.483 42.483 0 01-1.51 4.354 28.45 28.45 0 01-1.95 3.949 13.004 13.004 0 01-2.28 2.893 3.67 3.67 0 01-2.514 1.121 6.093 6.093 0 01-2.859-.563 3.77 3.77 0 01-1.599-1.523 6.465 6.465 0 01-.708-2.268 21.657 21.657 0 01-.179-2.86 16.72 16.72 0 01.416-3.298 43.534 43.534 0 012.85-8.715 27.303 27.303 0 012.218-4.043 13.117 13.117 0 012.603-2.916 4.53 4.53 0 012.869-1.121c.986 0 1.747.24 2.28.716a4.07 4.07 0 011.152 1.866c.243.816.382 1.662.413 2.517.04.92.061 1.811.061 2.676a19.8 19.8 0 01-.317 3.11zm32.084-8.769a4.144 4.144 0 00-.45-1.96 4.154 4.154 0 00-1.183-1.4 4.848 4.848 0 00-1.685-.81 7.493 7.493 0 00-1.895-.246 14.05 14.05 0 00-7.985 2.456 24.774 24.774 0 00-6.359 6.22 31.318 31.318 0 00-4.2 8.242 26.905 26.905 0 00-1.506 8.585c-.009 2.08.675 3.605 2.052 4.581 1.377.975 3.074 1.461 5.086 1.461a12.074 12.074 0 003.904-.622 15.274 15.274 0 003.342-1.588 18.017 18.017 0 002.662-2.05 23.274 23.274 0 001.923-2.022c.471-.664.61-1.176.413-1.526-.198-.35-.493-.279-.888.22a12.697 12.697 0 01-1.774 1.866 20.146 20.146 0 01-2.425 1.834 17.593 17.593 0 01-2.603 1.4 5.967 5.967 0 01-2.308.56c-1.38 0-2.326-.518-2.837-1.555a7.706 7.706 0 01-.77-3.486 16.96 16.96 0 01.502-3.638 39.96 39.96 0 011.392-4.665 56.934 56.934 0 012.071-4.976 30.153 30.153 0 012.572-4.51 15.67 15.67 0 012.927-3.24 4.892 4.892 0 013.081-1.244c.597 0 1.192.075 1.774.217.592.146.888.571.888 1.277a1.44 1.44 0 01-.386 1.027 8.298 8.298 0 01-.859.777c-.308.24-.595.512-.857.807a1.545 1.545 0 00-.385 1.059.877.877 0 00.308.648c.21.198.45.353.712.467.296.129.607.214.924.249.287.039.573.059.86.062 1.112.052 2.181-.441 2.896-1.338a4.891 4.891 0 001.066-3.139zm23.02 21.569c.139-.395.299-.806.475-1.244.175-.437.323-.829.443-1.153l7.927-23.326c-3.232 0-5.903.01-8.01.033a507.14 507.14 0 01-5.117.032h-4.258c-.475-.042-.718.136-.739.496-.022.359.224.602.739.683h3.062c.404 0 .807.02 1.211.065-.382.904-.69 1.84-.924 2.799-.416 1.49-.937 3.243-1.568 5.255a149.518 149.518 0 01-2.157 6.343 53.235 53.235 0 01-2.656 6.081 19.027 19.027 0 01-3.047 4.477c-1.075 1.141-2.205 1.63-3.389 1.465-.711-.376-1.056-.878-1.035-1.526a7.693 7.693 0 01.324-1.944c.197-.677.376-1.322.533-1.944a1.428 1.428 0 00-.355-1.493c-.422-.246-.911-.334-1.389-.246a3.723 3.723 0 00-1.451.589c-.493.331-.94.729-1.331 1.183a6.543 6.543 0 00-1.023 1.649c-.665 1.697-.792 3.035-.382 4.01a4.967 4.967 0 002.04 2.333 5.74 5.74 0 003.164.745 6.376 6.376 0 002.84-.933 11.32 11.32 0 002.514-2.112 26.864 26.864 0 002.246-2.864 65.528 65.528 0 003.845-8.148c.986-2.569 1.784-4.892 2.397-6.965a159.952 159.952 0 001.51-5.414 18.225 18.225 0 011.183-3.482h5.545l-6.855 20.144c-.157.457-.348.956-.56 1.493a40.517 40.517 0 00-.617 1.649 24.078 24.078 0 00-.502 1.62 5.517 5.517 0 00-.206 1.4c0 1.241.443 2.154 1.331 2.737a5.31 5.31 0 002.985.869 6.967 6.967 0 003.934-1.118 20.014 20.014 0 003.149-2.598c.514-.496.73-.972.653-1.429-.077-.457-.336-.499-.77-.126-.277.256-.622.576-1.035.972a39.22 39.22 0 01-1.3 1.182c-.432.379-.897.71-1.39.995a2.694 2.694 0 01-1.303.405c-.552 0-.897-.208-1.035-.622a3.86 3.86 0 01-.207-1.244c.028-.237.087-.467.176-.684.12-.334.246-.693.385-1.089zm29.857-.547l9.828-24.269h-5.266l-1.232 2.987a5.08 5.08 0 00-1.393-2.831 3.593 3.593 0 00-2.631-1.089 12.727 12.727 0 00-5.354 1.154 18.133 18.133 0 00-4.655 3.087 23.824 23.824 0 00-3.845 4.51 32.337 32.337 0 00-2.899 5.41 32.07 32.07 0 00-1.818 5.754 26.906 26.906 0 00-.616 5.598c0 2.115.407 3.641 1.214 4.574.807.933 2.098 1.4 3.872 1.4a6.04 6.04 0 002.604-.622c.89-.428 1.74-.94 2.544-1.526a21.49 21.49 0 002.336-1.96 64.57 64.57 0 001.981-1.989 13.113 13.113 0 00-.355 1.898 5.369 5.369 0 00.09 1.895c.138.584.465 1.099.924 1.462.471.395 1.183.592 2.129.592a10.408 10.408 0 003.047-.404c.819-.24 1.614-.574 2.366-.995a8.261 8.261 0 001.802-1.37c.481-.48.934-.989 1.362-1.523a.732.732 0 00.176-.901c-.158-.311-.333-.385-.53-.22-1.146 1.079-2.123 1.931-2.93 2.553-.807.622-1.507.933-2.098.933a1.025 1.025 0 01-.977-.467 2.243 2.243 0 01-.268-1.121c.003-.453.074-.907.21-1.338.135-.456.265-.858.382-1.182zm-4.2-2.99a7.924 7.924 0 01-1.269 1.746 27.568 27.568 0 01-2.304 2.332 30.975 30.975 0 01-2.514 2.054c-.829.603-1.461.901-1.895.901a2.676 2.676 0 01-1.892-.868 3.186 3.186 0 01-.887-2.365 22.37 22.37 0 01.444-3.949 41.365 41.365 0 011.3-5.07 53.746 53.746 0 012.042-5.349 28.656 28.656 0 012.662-4.792 16.19 16.19 0 013.155-3.447 5.676 5.676 0 013.577-1.338c.551.01 1.097.136 1.599.373.53.236 1.02.564 1.448.972.394.356.708.8.924 1.296a1.88 1.88 0 010 1.461l-6.39 16.043zm40.621-25.364a16.922 16.922 0 003.67-3.45 8.718 8.718 0 001.848-4.76c.12-1.535 0-2.779-.354-3.731a4.322 4.322 0 00-1.658-2.177 5.997 5.997 0 00-2.661-.934 17.147 17.147 0 00-3.312-.061c-2.209.162-4.397 1.134-6.566 2.916a35.053 35.053 0 00-6.211 6.842 64.962 64.962 0 00-5.413 9.236 83.839 83.839 0 00-4.11 10.043 35.905 35.905 0 00-1.42 7.526c-.12 1.5-.12 3.01 0 4.51.09 1.406.41 2.783.946 4.075a7.395 7.395 0 002.218 2.955c.968.768 2.259 1.173 3.876 1.212a14.089 14.089 0 006.313-2.135 19.376 19.376 0 005.028-4.604 25.345 25.345 0 003.459-6.097 21.888 21.888 0 001.569-6.593 15.575 15.575 0 00-.709-6.094 9.499 9.499 0 00-3.315-4.636 4.282 4.282 0 01-.354-.278 2.14 2.14 0 00-.413-.282 26.725 26.725 0 003.37-1.18 22.08 22.08 0 004.199-2.303zm-9.504 2.634c-1.26.314-2.554.45-3.848.405a.606.606 0 00-.533.249 1.374 1.374 0 00-.234.528c-.04.175-.04.354 0 .529.037.165.117.249.234.249l1.008.123c.317.042.634.107.945.188 1.267.842 2.215 2.116 2.693 3.609a16.08 16.08 0 01.856 5.378 24.256 24.256 0 01-.797 6.065 29.725 29.725 0 01-2.102 5.753 16.472 16.472 0 01-3.105 4.448c-1.057 1.128-2.44 1.854-3.934 2.054-.9-.246-1.581-.936-2.04-2.07a12.619 12.619 0 01-.798-4.043 28.205 28.205 0 01.207-4.947c.194-1.617.477-3.22.856-4.801a88.397 88.397 0 012.132-6.719 76.876 76.876 0 012.773-6.687 76.331 76.331 0 013.222-6.126 55.608 55.608 0 013.355-5.07 21.563 21.563 0 013.195-3.515c1.026-.869 1.99-1.345 2.899-1.43 1.143-.083 1.981.147 2.514.684a3.11 3.11 0 01.829 2.21 9.286 9.286 0 01-.564 3.14 20.093 20.093 0 01-1.54 3.42 15.963 15.963 0 01-2.218 3.049 9.861 9.861 0 01-2.573 2.054 16.83 16.83 0 01-3.432 1.273zm38.033 26.329c-.277.256-.619.577-1.035.972-.416.395-.85.787-1.303 1.182a8.494 8.494 0 01-1.39.995 2.673 2.673 0 01-1.3.405c-.554 0-.899-.211-1.035-.648a4.15 4.15 0 01-.209-1.273 5.122 5.122 0 01.505-1.866c.333-.788.665-1.536.973-2.242l8.815-23.261-5.416.013-5.087 13.496h-8.934c.788-1.992 1.429-3.754 1.922-5.287.493-1.532.761-2.549.801-3.048a6.136 6.136 0 00-.179-1.866 5.247 5.247 0 00-.739-1.679 4.056 4.056 0 00-1.272-1.214 3.372 3.372 0 00-1.775-.467 6.942 6.942 0 00-2.465.437c-.754.282-1.475.645-2.156 1.089a9.952 9.952 0 00-1.849 1.523 26.239 26.239 0 00-1.482 1.681c-.323.337-.446.833-.323 1.296.138.415.403.457.798.123.434-.415.856-.859 1.272-1.338.41-.47.844-.917 1.3-1.335a7.224 7.224 0 011.421-1.027 3.332 3.332 0 011.626-.405.625.625 0 01.592.499c.126.402.175.823.148 1.244a9.784 9.784 0 01-.207 1.584 8.182 8.182 0 01-.474 1.526l-9.523 24.194h5.493l1.211-2.893a400.965 400.965 0 001.599-3.887 465.13 465.13 0 001.774-4.445 236.809 236.809 0 001.744-4.571h9.005l-2.245 6.032a72.337 72.337 0 01-1.214 3.453 7.506 7.506 0 00-.567 2.696c0 1.241.422 2.154 1.272 2.737a5.049 5.049 0 002.927.869 6.967 6.967 0 003.934-1.118 19.918 19.918 0 003.164-2.621c.512-.496.73-.972.65-1.429-.08-.456-.335-.499-.767-.126zm28.621.01c-1.143 1.079-2.119 1.944-2.926 2.553-.808.609-1.51.933-2.102.933a1.02 1.02 0 01-.973-.467 2.243 2.243 0 01-.268-1.121c.006-.453.077-.904.212-1.335.139-.456.268-.858.385-1.182l9.785-24.262h-5.262l-1.232 2.987a5.076 5.076 0 00-1.39-2.832 3.588 3.588 0 00-2.631-1.088 12.711 12.711 0 00-5.354 1.153 18.165 18.165 0 00-4.643 3.078 23.83 23.83 0 00-3.845 4.51 32.26 32.26 0 00-2.899 5.41 32.412 32.412 0 00-1.802 5.753 26.917 26.917 0 00-.617 5.599c0 2.115.407 3.641 1.214 4.574.808.933 2.098 1.4 3.873 1.4.9-.01 1.787-.221 2.603-.622.891-.428 1.741-.94 2.545-1.526a21.769 21.769 0 002.335-1.96 62.392 62.392 0 001.981-1.989 12.845 12.845 0 00-.354 1.898 5.392 5.392 0 00.089 1.895 2.67 2.67 0 00.925 1.461c.474.396 1.183.593 2.132.593 1.029.016 2.051-.12 3.044-.405a11.367 11.367 0 002.366-.994 8.314 8.314 0 001.805-1.371 18.45 18.45 0 001.362-1.522.73.73 0 00.175-.901c-.157-.311-.336-.386-.533-.22zm-9.88-3.603a7.9 7.9 0 01-1.272 1.74 27.17 27.17 0 01-2.308 2.332 29.101 29.101 0 01-2.514 2.054c-.826.603-1.457.901-1.892.901a2.676 2.676 0 01-1.891-.868 3.182 3.182 0 01-.887-2.365c.03-1.328.178-2.65.443-3.949a41.547 41.547 0 011.3-5.07 53.664 53.664 0 012.043-5.346 28.576 28.576 0 012.662-4.791 16.138 16.138 0 013.167-3.451 5.66 5.66 0 013.577-1.338c.551.01 1.097.136 1.599.373a5.13 5.13 0 011.448.972c.391.359.705.8.924 1.296.194.466.194.994 0 1.461l-6.399 16.049z" fill="#DC7DA6"/></svg>