<svg width="168" height="126" fill="none" xmlns="http://www.w3.org/2000/svg"><path d="M96.677 52s41.291-22.131 27.506-42.256c-10.067-14.698-27.688-.79-27.688-.79s-17.459-13.824-27.506.79C54.662 30.587 96.495 52 96.495 52h.182zM3 119s28.808-33.225 29.703-37.248c3.457-15.53 14.537-21.007 26.569-19.516 21.432 2.652 29.255 8.045 58.804 4.726 7.719.414 7.71 8.043 1.047 11.959-9.463 5.562-27.016 2.681-39.697 4.57" stroke="#fff" stroke-width="5" stroke-linecap="round" stroke-linejoin="bevel"/><path d="M43 123c17.455-24.314 20.852-24.685 25.926-24.224 9.932.906 20.752 3.32 28.61 3.773 7.967.459 13.376-.675 20.752-3.773 18.677-7.845 31.351-16.67 42.913-27.832 8.372-8.083 1.512-15.96-7.115-9.656-11.638 8.506-20.605 11.841-31.351 15.765" stroke="#fff" stroke-width="5" stroke-linecap="round" stroke-linejoin="bevel"/></svg>