<svg width="96" height="137" fill="none" xmlns="http://www.w3.org/2000/svg"><path d="M68.702 113.116v21.279H12.13c-5.263 0-9.527-4.282-9.527-9.561V12.169c0-5.282 4.264-9.562 9.527-9.562h71.743c5.262 0 9.527 4.282 9.527 9.562v95.541H74.087c-2.975 0-5.387 2.421-5.387 5.406h.002zm.001 21.279l24.699-26.685M19.541 25.275h53.983M19.541 37.592h26.991M19.541 49.907h45.4m-45.4 12.319h36.14" stroke="#fff" stroke-width="5" stroke-linecap="round" stroke-linejoin="bevel"/><path d="M35.106 118.782s15.558-8.479 10.365-16.19c-3.795-5.631-10.433-.304-10.433-.304s-6.58-5.298-10.365.304c-5.398 7.986 10.365 16.19 10.365 16.19h.07-.002z" stroke="#fff" stroke-width="5" stroke-linecap="round" stroke-linejoin="bevel"/></svg>