<svg width="164" height="107" fill="none" xmlns="http://www.w3.org/2000/svg"><path d="M137.883 2.76H26.116c-4.106 0-7.434 3.336-7.434 7.45v64.067c0 4.114 3.328 7.45 7.434 7.45h111.767c4.106 0 7.435-3.336 7.435-7.45V10.21c0-4.114-3.329-7.45-7.435-7.45zm1.956 78.967H24.164a16.728 16.728 0 00-9.903 3.243L3.785 92.648c-1.953 1.43-.941 4.53 1.477 4.53H158.74c2.418 0 3.43-3.097 1.477-4.53l-10.476-7.678a16.737 16.737 0 00-9.902-3.243z" stroke="#fff" stroke-width="5" stroke-linecap="round" stroke-linejoin="bevel"/><path d="M136.644 11.452H27.356v61.584h109.288V11.452zM6.797 104.239h150.409" stroke="#fff" stroke-width="5" stroke-linecap="round" stroke-linejoin="bevel"/></svg>