<svg width="202" height="99" fill="none" xmlns="http://www.w3.org/2000/svg"><path fill-rule="evenodd" clip-rule="evenodd" d="M117.423 18.19l-.004.007.012-.009h-.008v.002zm-4.59 1.953c-4.213 2.93 1.738 8.035 3.221 11.473 1.322 3.182.907 5.44-.496 8.038-.494.835-1.237 1.675-1.566 2.43 1.566-1.257 3.219-3.268 4.045-4.86.825-1.758.825-3.182 0-5.524-1.241-3.52-7.601-9.13-5.204-11.557zm16.988 14.064c4.348-6.896 7.199-13.742 5.836-20.041-3.859-17.84-28.31-18.185-36.801-4.656C80.209-.113 60.618 21.681 77.333 39.185 86.197 48.47 99.668 54.962 111.428 60c3.937-6.615 10.133-13.886 15.319-21.219 4.093 4.7.095 11.121-5.006 16.475 1.077 0 2.149-.084 3.056-.167 6.827-7.116 11.947-16.83 5.022-20.882h.002zm-17.725 22.761s-2.344-.588-5.872-1.845l.487.056c.21-.363.46-.7.746-1.004l1.32-1.766a11.78 11.78 0 001.242-1.843c.659-1.171 1.401-3.098.907-4.856-1.159-4.101-5.618.168-7.682.92-3.305 1.259-1.9-2.428-2.725-2.93-.495-.085-.495.083-.909-.168-.082-.5.329-.92.246-1.339-.082-.419-.659-.419-.99-.672-.082-1.004.414-1.923-.66-2.258-.827-.335-1.817-.42-1.323-1.592.496-1.339 1.736-2.933 1.322-4.605-.165-.838-.66-1.426-.99-2.094a8.55 8.55 0 01-.756-5.196c.33-1.506 1.901-5.693 4.296-8.12 9.499-9.633 16.178 2.26 16.602-.84 1.166-.585 4.634 1.843 5.298 2.932a5.02 5.02 0 01.082 4.941c-.165.168-.33.42-.498.587-.989.834-.33-.084-.578-.67-.083-.25-.248-.669-.577-.585-.165.335 0 1.841 0 2.346 0 1.506-.165 3.015-.826 4.27-1.24 2.262-.907 1.338-.907 4.017 2.814.85 4.874 1.897 6.313 3.081-5.97 10.356-13.568 19.233-13.568 19.233zm15.922-23.586c-1.818-.646-4.181-1.029-7.181-1.07.824-.84 1.072-3.265 1.402-4.106 1.157-2.846.994-1.506 2.725-3.682.664-.838 1.242-1.764 1.077-3.268a6.403 6.403 0 00-3.482-5.262c-.915-.492-2.235-.754-3.39-.921-.746-.084-1.24-.252-1.818.083-1.488.922-2.149-1.003-4.38-1.84-11.148-3.939-19.739 9.459-17.012 17.082.742 2.002 2.064 2.17 1.322 4.512-.33.84-.745 1.426-1.074 2.095-.341.758-.744 1.832.083 2.262.752.335 1.742.419 1.907 1.255.083.586-.248.835-.165 1.34.082.42.578.42.909.587 0 .503-.33.752-.166 1.422.083.503.414.503.99.587.506.165.341.67.424 1.257-.002.427.144.842.413 1.17 1.568 2.181 4.954-.5 6.607-1.503.485-.336 1.568-.922 2.393-.585.663.333.993 1.339.911 2.342a5.895 5.895 0 01-.664 2.514c-.65 1.424-1.733 2.847-2.557 3.85-.437.443-1.07 1.343-1.267 1.549-9.182-3.3-26.052-11.043-30.925-24.652-3.819-10.663 1.754-20.013 10.83-21.605 5.721-1.004 9.603.848 13.774 4.153 1.938-5.004 8.664-9.662 13.773-11.102 8.849-2.42 16.423 3.698 18.79 12.462 1.415 5.238-.818 12.25-4.249 19.074zm-8.332-6.815c2.564-1.64-1.691-2.913-2.901-4.07-1.085-1.078-.968-2.004-.225-3.179.265-.38.691-.79.859-1.121-.948.668-1.897 1.639-2.319 2.354-.421.785-.324 1.337.378 2.149 1.055 1.22 5.613 2.64 4.208 3.867z" fill="#fff"/><path d="M36.238 85.805a.348.348 0 00-.347.165c-.244.275-.498.572-.755.887a9.786 9.786 0 01-.798.859 3.7 3.7 0 01-.897.644 2.4 2.4 0 01-1.104.247c-.434 0-.749-.125-.938-.372a2.06 2.06 0 01-.39-.858 3.434 3.434 0 01-.059-.99c.026-.329.04-.578.04-.74a13.09 13.09 0 01.49-3.732 32.803 32.803 0 011.35-3.955 48.89 48.89 0 011.798-3.864 222.279 222.279 0 011.856-3.525 397.46 397.46 0 001.532-2.864c.349-.61.623-1.258.817-1.933a.67.67 0 00-.121-.493.797.797 0 00-.47-.331.99.99 0 00-.654.062 1.401 1.401 0 00-.638.68 984.75 984.75 0 00-3.533 4.885 38.721 38.721 0 00-3.49 5.956 3.78 3.78 0 01-.349-.082 3.927 3.927 0 01-.346-.124l-.04-.082a.118.118 0 00-.082.04 4.633 4.633 0 01-1.348-.886 7.983 7.983 0 01-1.185-1.359 7.136 7.136 0 01-.85-1.67 6.336 6.336 0 01-.369-1.896 10.83 10.83 0 01.124-2.555c.57-2.391 1.584-4.24 3.041-5.545a11.625 11.625 0 014.922-2.658 11.305 11.305 0 013.403-.062c1.147.14 2.268.446 3.329.906a9.255 9.255 0 012.695 1.773 5.247 5.247 0 011.51 2.576c.213.694.285 1.424.213 2.147a4.743 4.743 0 01-.51 1.67 3.85 3.85 0 01-.877 1.134 2.114 2.114 0 01-.9.494 1.87 1.87 0 01-.449.062 2.64 2.64 0 01-1.633-.494 2.795 2.795 0 01-.817-.968c-.236-.412-.395-.537-.449-.371-.053.219-.038.448.04.659.045.311.126.616.245.906.147.371.377.704.675.97.348.305.772.511 1.225.597a3.79 3.79 0 001.859-.165 3.51 3.51 0 001.387-.784 4.77 4.77 0 001.082-1.4 5.679 5.679 0 00.572-1.876 6.094 6.094 0 00-.142-2.246 8.08 8.08 0 00-1.553-2.68 11.375 11.375 0 00-2.47-2.146 11.625 11.625 0 00-6.474-1.814l-.204-.045a21.72 21.72 0 00-4.716.99 16.61 16.61 0 00-4.37 2.123 10.962 10.962 0 00-3.123 3.233 6.778 6.778 0 00-.98 4.294 8.1 8.1 0 001.652 4.328 10.47 10.47 0 003.37 2.926c.082.056.172.105.265.144.094.04.198.09.306.144a14.384 14.384 0 00-3.818 2.082 25.14 25.14 0 00-2.96 2.701c-.9.962-1.764 1.924-2.593 2.886a20.22 20.22 0 01-2.695 2.595 12.5 12.5 0 01-3.31 1.879 12.143 12.143 0 01-4.39.721c-1.495 0-2.726-.35-3.694-1.052-.968-.702-1.45-1.92-1.45-3.65a5.984 5.984 0 01.448-2.288A5.998 5.998 0 014.39 80.7a6.34 6.34 0 011.838-1.32 5.24 5.24 0 012.268-.494c.972 0 1.94.13 2.877.39.94.26 1.872.541 2.797.84.22.056.328.025.328-.084 0-.11-.096-.232-.285-.37a8.166 8.166 0 00-1.39-.66 11.63 11.63 0 00-1.673-.475 20.8 20.8 0 00-1.819-.288c-.589-.066-1.182-.1-1.776-.103a7.93 7.93 0 00-2.716.496 8.237 8.237 0 00-2.429 1.366A7.094 7.094 0 00.675 82.08 5.486 5.486 0 000 84.78c0 1.21.215 2.207.645 2.988a5.143 5.143 0 001.757 1.877 7.064 7.064 0 002.49.968c.945.178 1.904.266 2.865.262 1.88 0 3.493-.281 4.84-.846a14.12 14.12 0 003.615-2.164 20.21 20.21 0 002.901-2.928 53.259 53.259 0 012.715-3.135 22.729 22.729 0 013.084-2.74 11.174 11.174 0 013.996-1.822l.613.122A32.291 32.291 0 0027.968 82a20.504 20.504 0 00-.613 5.05 4.58 4.58 0 00.756 2.638c.504.743 1.314 1.114 2.43 1.114a5.923 5.923 0 003.37-1.03 8.754 8.754 0 002.51-2.558c.15-.18.236-.407.246-.644a.988.988 0 00-.123-.515.483.483 0 00-.306-.249zm21.219-15.66a5.513 5.513 0 00-3.042.909 10.55 10.55 0 00-2.512 2.267c.055-.354.064-.717.021-1.074a1.936 1.936 0 00-.425-1.03 2.821 2.821 0 00-1.064-.764 4.717 4.717 0 00-2.858-.164c-.462.116-.908.29-1.328.516a9.171 9.171 0 00-1.47.968 8.335 8.335 0 00-1.45 1.503 1.32 1.32 0 00-.223.534c-.02.116.01.236.08.33.06.078.147.13.245.145a.24.24 0 00.226-.063c.272-.274.563-.577.878-.905.3-.318.62-.614.96-.887.31-.251.646-.473 1-.66a2.215 2.215 0 011.041-.268.55.55 0 01.53.331c.115.245.17.511.164.782a4.566 4.566 0 01-.121.99 6.897 6.897 0 01-.288.948L37.695 99h3.92l4.656-11.458c0 1.155.276 1.98.836 2.473.56.494 1.423.74 2.593.74a8.817 8.817 0 005.147-1.586 14.508 14.508 0 003.88-4.019 20.635 20.635 0 003.266-10.799c-.01-1.509-.378-2.589-1.106-3.235-.727-.646-1.871-.97-3.43-.97zm.453 7.334a28.215 28.215 0 01-2.165 6.642c-.452.976-.99 1.905-1.613 2.777a9.188 9.188 0 01-1.819 1.932 3.083 3.083 0 01-1.878.722c-.472 0-.761-.142-.897-.43a2.025 2.025 0 01-.185-.968c.012-.352.061-.704.142-1.048.062-.221.105-.449.124-.678-.024-.329-.177-.5-.45-.516a4.221 4.221 0 00-.735.022 1.567 1.567 0 00-.591.144c-.228.096-.45.182-.653.287-.205.106-.36.174-.47.215-.111.04-.137-.006-.083-.144l4.492-10.775c.219-.425.493-.82.817-1.172.43-.5.901-.962 1.41-1.379.52-.431 1.08-.809 1.674-1.131a3.447 3.447 0 011.612-.472 1.26 1.26 0 011.225.843c.257.619.383 1.284.368 1.954a17.108 17.108 0 01-.325 3.175zm20.853-5.457a4.844 4.844 0 00-1.702-1.402 5.48 5.48 0 00-2.49-.515 9.312 9.312 0 00-5.044 1.442 14.265 14.265 0 00-3.977 3.725 18.434 18.434 0 00-2.614 5.09 17.174 17.174 0 00-.94 5.484 5.108 5.108 0 00.425 2.164c.27.601.685 1.125 1.204 1.524.54.41 1.148.717 1.797.906a7.59 7.59 0 002.216.316 9.76 9.76 0 004.788-1.265 13.93 13.93 0 003.96-3.297 16.358 16.358 0 002.677-4.556c.64-1.61.971-3.326.98-5.06a9.862 9.862 0 00-.3-2.495 5.787 5.787 0 00-.98-2.061zm-2.86 6.698a24.32 24.32 0 01-.652 2.72 27.559 27.559 0 01-1.042 2.886c-.379.906-.83 1.782-1.347 2.617a8.718 8.718 0 01-1.574 1.917 2.588 2.588 0 01-1.735.743 4.366 4.366 0 01-1.974-.374 2.557 2.557 0 01-1.104-1.009 4.16 4.16 0 01-.49-1.502 13.797 13.797 0 01-.123-1.896c.02-.737.117-1.469.288-2.186a28.047 28.047 0 011.967-5.775c.434-.936.944-1.833 1.531-2.68a8.83 8.83 0 011.798-1.931 3.198 3.198 0 011.98-.743c.68 0 1.206.158 1.574.474.374.329.65.758.795 1.237.168.54.264 1.101.285 1.668.028.61.043 1.2.043 1.773a12.67 12.67 0 01-.22 2.061zm22.151-5.811c.009-.453-.097-.9-.31-1.3a2.792 2.792 0 00-.817-.927 3.407 3.407 0 00-1.164-.537 5.38 5.38 0 00-1.308-.163 9.99 9.99 0 00-5.513 1.628 16.823 16.823 0 00-4.39 4.122 20.46 20.46 0 00-2.899 5.462 17.186 17.186 0 00-1.04 5.689c-.006 1.378.466 2.39 1.417 3.036.95.646 2.122.968 3.511.968a8.633 8.633 0 002.695-.412 10.728 10.728 0 002.308-1.052c.653-.395 1.268-.85 1.838-1.36.468-.418.912-.867 1.327-1.339.325-.44.421-.78.285-1.011-.136-.232-.34-.185-.613.146a8.59 8.59 0 01-1.225 1.236 13.9 13.9 0 01-1.674 1.216 12.28 12.28 0 01-1.797.927 4.26 4.26 0 01-1.593.371c-.953 0-1.606-.343-1.96-1.03a4.943 4.943 0 01-.53-2.31c.025-.814.14-1.623.346-2.411.255-1.05.576-2.083.961-3.092a36.862 36.862 0 011.43-3.297 19.818 19.818 0 011.776-2.989c.57-.807 1.25-1.53 2.02-2.147a3.455 3.455 0 012.127-.824c.413 0 .823.05 1.225.144.409.096.613.377.613.846.008.253-.09.5-.266.68a5.663 5.663 0 01-.593.515c-.213.16-.41.34-.592.535a.999.999 0 00-.266.702.57.57 0 00.213.43c.145.13.31.233.492.308.204.086.419.142.638.166.197.026.395.039.593.04a2.452 2.452 0 002-.886c.486-.58.748-1.32.735-2.08zm15.893 14.294c.096-.262.206-.535.328-.825.121-.29.223-.55.306-.764l5.473-15.458c-2.232 0-4.076.007-5.53.022-1.455.015-2.634.021-3.533.021h-2.94c-.327-.028-.495.09-.51.329-.015.238.155.399.51.453h2.114c.279 0 .558.013.836.043-.263.599-.476 1.22-.638 1.855-.287.987-.646 2.149-1.082 3.482a97.466 97.466 0 01-1.489 4.203 34.693 34.693 0 01-1.834 4.03 12.602 12.602 0 01-2.103 2.967c-.743.756-1.523 1.08-2.34.97-.491-.248-.73-.581-.715-1.01.017-.439.092-.872.224-1.289a37.2 37.2 0 00.368-1.288.923.923 0 00-.245-.99 1.448 1.448 0 00-.959-.163c-.358.06-.698.194-1.002.391a4.322 4.322 0 00-1.625 1.876c-.46 1.125-.547 2.012-.264 2.658a3.341 3.341 0 001.408 1.546 4.1 4.1 0 002.185.494 4.54 4.54 0 001.961-.618 7.769 7.769 0 001.735-1.4c.56-.597 1.079-1.23 1.551-1.898a42.698 42.698 0 002.654-5.4 60.526 60.526 0 001.655-4.615c.423-1.374.77-2.57 1.042-3.588.192-.796.466-1.57.817-2.308h3.829l-4.733 13.35c-.108.302-.24.633-.387.99-.147.356-.291.72-.425 1.092-.134.372-.251.73-.347 1.074-.089.3-.136.614-.143.927 0 .822.307 1.428.919 1.814a3.786 3.786 0 002.061.576c.957.021 1.9-.237 2.716-.741a13.663 13.663 0 002.174-1.722c.355-.328.504-.644.451-.947-.053-.302-.232-.33-.532-.084-.191.17-.429.383-.714.645a26.81 26.81 0 01-.898.783c-.298.251-.619.47-.959.66a1.91 1.91 0 01-.9.268c-.381 0-.619-.138-.714-.413a2.46 2.46 0 01-.143-.824c.019-.157.06-.31.121-.453.083-.221.17-.46.266-.721zm20.613-.363l6.785-16.083h-3.635l-.851 1.98a3.319 3.319 0 00-.961-1.877 2.534 2.534 0 00-1.817-.72 9.092 9.092 0 00-3.697.763 12.58 12.58 0 00-3.213 2.046 15.99 15.99 0 00-2.655 2.989 21.073 21.073 0 00-2.001 3.585 20.57 20.57 0 00-1.255 3.813 17.146 17.146 0 00-.426 3.71c0 1.402.281 2.413.838 3.031.558.619 1.449.928 2.674.928a4.306 4.306 0 001.797-.412 11.334 11.334 0 001.757-1.011 14.677 14.677 0 001.612-1.3c.504-.465.96-.905 1.368-1.318a8.4 8.4 0 00-.245 1.258c-.057.42-.036.844.062 1.257.096.386.321.727.638.968.326.262.817.393 1.47.393.71.01 1.419-.08 2.104-.269a8.051 8.051 0 001.633-.659c.453-.245.872-.55 1.244-.908.332-.318.645-.655.94-1.01a.472.472 0 00.122-.596c-.109-.206-.23-.255-.366-.146-.791.715-1.466 1.28-2.023 1.692-.557.412-1.04.618-1.448.618a.719.719 0 01-.675-.309 1.448 1.448 0 01-.185-.743c.002-.3.051-.6.145-.886.094-.303.183-.57.264-.784zm-2.899-1.982a5.279 5.279 0 01-.877 1.157c-.5.548-1.031 1.063-1.591 1.546a21.26 21.26 0 01-1.735 1.361c-.572.4-1.008.597-1.308.597a1.881 1.881 0 01-1.306-.575 2.063 2.063 0 01-.613-1.567c.021-.88.123-1.756.306-2.617a26.71 26.71 0 01.898-3.36c.404-1.207.876-2.39 1.41-3.545a18.771 18.771 0 011.838-3.175 10.86 10.86 0 012.178-2.285 4.016 4.016 0 012.469-.886c.381.006.758.09 1.104.247a3.53 3.53 0 011 .644c.272.236.489.53.638.858a1.2 1.2 0 010 .969l-4.411 10.631zm28.044-16.808a11.495 11.495 0 002.533-2.286 5.646 5.646 0 001.276-3.154c.083-1.018 0-1.842-.244-2.473a2.884 2.884 0 00-1.145-1.443 4.249 4.249 0 00-1.837-.618 12.333 12.333 0 00-2.287-.041c-1.525.107-3.035.751-4.532 1.932a23.57 23.57 0 00-4.288 4.534 42.57 42.57 0 00-3.738 6.121 54.26 54.26 0 00-2.837 6.656 22.89 22.89 0 00-.98 4.987 17.965 17.965 0 000 2.988 8.13 8.13 0 00.653 2.701c.336.775.863 1.45 1.531 1.958.668.509 1.559.777 2.676.803a9.987 9.987 0 004.358-1.415 13.188 13.188 0 003.471-3.05 16.632 16.632 0 002.389-4.041 14.026 14.026 0 001.082-4.369 9.933 9.933 0 00-.489-4.038 6.305 6.305 0 00-2.288-3.073 2.853 2.853 0 01-.245-.184 1.482 1.482 0 00-.285-.187c.791-.21 1.57-.47 2.327-.781a15.446 15.446 0 002.899-1.527zm-6.562 1.746a9.967 9.967 0 01-2.656.268.423.423 0 00-.368.165.892.892 0 00-.162.35.74.74 0 000 .35c.025.11.081.165.162.165l.695.082c.219.028.438.07.653.125a4.535 4.535 0 011.859 2.391 10.27 10.27 0 01.591 3.564 15.455 15.455 0 01-.55 4.02 19.198 19.198 0 01-1.451 3.812 10.952 10.952 0 01-2.144 2.948 4.627 4.627 0 01-2.716 1.36c-.621-.162-1.091-.62-1.408-1.371a8.085 8.085 0 01-.551-2.68 18.057 18.057 0 01.142-3.278c.134-1.071.33-2.134.592-3.181a57.07 57.07 0 011.471-4.453 49.604 49.604 0 011.915-4.431 49.482 49.482 0 012.225-4.06 36.525 36.525 0 012.316-3.36 14.51 14.51 0 012.206-2.33c.708-.575 1.374-.89 2.001-.946.789-.056 1.368.096 1.736.453.38.388.587.919.572 1.464a5.939 5.939 0 01-.389 2.08 13.138 13.138 0 01-1.064 2.267 10.535 10.535 0 01-1.531 2.02 6.776 6.776 0 01-1.776 1.362c-.758.365-1.553.646-2.37.844zm26.258 17.447c-.192.17-.428.383-.715.645a29.08 29.08 0 01-.9.783 5.844 5.844 0 01-.959.66 1.895 1.895 0 01-.897.268c-.383 0-.622-.14-.715-.43a2.628 2.628 0 01-.145-.843c.034-.432.153-.853.349-1.237.23-.522.46-1.018.672-1.486l6.085-15.414-3.739.008-3.511 8.944h-6.169c.545-1.32.987-2.488 1.328-3.504.34-1.015.525-1.69.553-2.02a3.907 3.907 0 00-.124-1.237 3.403 3.403 0 00-.51-1.112 2.75 2.75 0 00-.879-.805 2.401 2.401 0 00-1.225-.309 4.948 4.948 0 00-1.701.29 7.675 7.675 0 00-1.489.721 6.817 6.817 0 00-1.276 1.01c-.385.386-.724.755-1.024 1.114a.882.882 0 00-.223.858c.096.275.279.303.551.082.3-.275.591-.569.878-.887.283-.311.583-.607.898-.884.3-.266.627-.494.981-.68a2.37 2.37 0 011.123-.27c.195.003.363.14.408.331.087.267.121.546.102.825a6.287 6.287 0 01-.142 1.05 5.248 5.248 0 01-.328 1.01l-6.574 16.034h3.792l.836-1.917a277.434 277.434 0 002.329-5.522 158.3 158.3 0 001.204-3.03h6.217l-1.551 3.998c-.3.88-.578 1.643-.838 2.289a4.832 4.832 0 00-.391 1.786c0 .822.291 1.428.878 1.814a3.59 3.59 0 002.021.576 4.956 4.956 0 002.716-.741 13.671 13.671 0 002.185-1.737c.353-.328.504-.644.448-.947-.055-.302-.231-.33-.529-.084zm19.759.007c-.789.715-1.463 1.288-2.02 1.692-.557.403-1.042.618-1.451.618a.714.714 0 01-.672-.31 1.438 1.438 0 01-.185-.742c.004-.3.053-.599.147-.884.096-.303.185-.57.266-.784L202 70.762h-3.633l-.851 1.98a3.31 3.31 0 00-.959-1.877 2.533 2.533 0 00-1.816-.722 9.089 9.089 0 00-3.697.765 12.59 12.59 0 00-3.205 2.04 15.957 15.957 0 00-2.655 2.988 21.078 21.078 0 00-3.246 7.398 17.145 17.145 0 00-.425 3.71c0 1.402.281 2.413.838 3.031.557.619 1.448.928 2.674.928a4.311 4.311 0 001.797-.412 11.334 11.334 0 001.757-1.012 14.88 14.88 0 001.612-1.298c.504-.466.959-.907 1.368-1.319a8.156 8.156 0 00-.245 1.258c-.057.419-.036.844.062 1.256.098.387.323.728.638.969.327.262.817.392 1.472.392a7.457 7.457 0 002.101-.268 8.042 8.042 0 001.634-.659 5.7 5.7 0 001.246-.908c.332-.318.645-.655.94-1.01a.47.47 0 00.121-.596c-.108-.206-.231-.255-.368-.146zm-6.821-2.387a5.26 5.26 0 01-.878 1.153c-.5.547-1.032 1.062-1.593 1.545a20.14 20.14 0 01-1.736 1.361c-.57.4-1.006.597-1.306.597a1.885 1.885 0 01-1.306-.575 2.062 2.062 0 01-.612-1.567c.021-.88.123-1.756.306-2.617.225-1.138.525-2.261.897-3.36.405-1.207.877-2.39 1.411-3.543a18.77 18.77 0 011.837-3.175 10.888 10.888 0 012.187-2.287 4.003 4.003 0 012.469-.886c.381.006.757.09 1.104.247a3.53 3.53 0 011 .644c.27.238.487.53.638.858.134.31.134.66 0 .969l-4.418 10.636z" fill="#fff"/></svg>