<svg width="100" height="100" fill="none" xmlns="http://www.w3.org/2000/svg"><g id="Layer_1" clip-path="url(#clip0_539_294)"><g id="Clip path group"><mask id="mask0_539_294" style="mask-type:luminance" maskUnits="userSpaceOnUse" x="0" y="0" width="100" height="100"><g id="clippath"><path id="Vector" d="M50 100c27.614 0 50-22.386 50-50S77.614 0 50 0 0 22.386 0 50s22.386 50 50 50z" fill="#fff"/></g></mask><g mask="url(#mask0_539_294)"><g id="Group"><g id="Group_2"><path id="Vector_2" d="M100 0H0v100h100V0z" fill="#fff"/><path id="Vector_3" d="M27.004 49.998c0-12.698 10.297-22.99 23-22.99s22.99 10.292 22.99 22.99c0 12.698-10.287 22.996-22.99 22.996-12.703 0-23-10.288-23-22.996z" fill="#EC1C24"/></g></g></g></g></g><defs><clipPath id="clip0_539_294"><path fill="#fff" d="M0 0h100v100H0z"/></clipPath></defs></svg>