<svg width="100" height="100" fill="none" xmlns="http://www.w3.org/2000/svg"><g id="Layer_1" clip-path="url(#clip0_539_94)"><g id="Clip path group"><mask id="mask0_539_94" style="mask-type:luminance" maskUnits="userSpaceOnUse" x="0" y="0" width="100" height="100"><g id="clippath"><path id="Vector" d="M50 100c27.614 0 50-22.386 50-50S77.614 0 50 0 0 22.386 0 50s22.386 50 50 50z" fill="#fff"/></g></mask><g mask="url(#mask0_539_94)"><g id="Group"><g id="Group_2"><path id="Vector_2" d="M26 0H0v100h26V0z" fill="#EC1C24"/><path id="Vector_3" d="M100 0H74v100h26V0z" fill="#EC1C24"/><path id="Vector_4" d="M74 0H26v100h48V0z" fill="#fff"/><path id="Vector_5" d="M51.101 74.9l-.556-9.97c0-1.623.694-1.623 1.47-1.477.767.146 9.961 1.689 9.961 1.689s-1.087-2.598-1.087-3.58c0-1.267 2.695-3.004 5.642-5.61 2.947-2.582 4.976-3.93 4.976-4.197 0-.284-2.102-.22-2.102-1.762 0-1.543 1.96-7.291 1.96-7.291s-4.128 1.405-5.252 1.405c-1.124 0-2.882-2.03-2.882-3.654 0 0-5.394 6.812-6.515 6.308-1.128-.487 2.03-13.81 2.03-13.81s-3.227 2.729-4.344 2.396c-1.128-.357-4.279-8.143-4.279-8.143s-.052-.106-.12-.106c-.066 0-.119.106-.119.106s-3.15 7.785-4.274 8.143c-1.116.333-4.352-2.395-4.352-2.395s3.162 13.322 2.034 13.809c-1.12.504-6.515-6.308-6.515-6.308 0 1.624-1.75 3.654-2.874 3.654s-5.265-1.405-5.265-1.405 1.97 5.748 1.97 7.29c0 1.544-2.112 1.478-2.112 1.763 0 .268 2.033 1.615 4.985 4.197 2.947 2.606 5.646 4.343 5.646 5.61 0 .983-1.088 3.58-1.088 3.58s9.178-1.543 9.957-1.69c.776-.144 1.477-.144 1.477 1.479l-.56 9.969h2.188z" fill="#E01B22"/></g></g></g></g></g><defs><clipPath id="clip0_539_94"><path fill="#fff" d="M0 0h100v100H0z"/></clipPath></defs></svg>