<svg width="100" height="100" fill="none" xmlns="http://www.w3.org/2000/svg"><g id="Layer_1" clip-path="url(#clip0_539_310)"><g id="Clip path group"><mask id="mask0_539_310" style="mask-type:luminance" maskUnits="userSpaceOnUse" x="0" y="0" width="100" height="100"><g id="clippath"><path id="Vector" d="M50 100c27.614 0 50-22.386 50-50S77.614 0 50 0 0 22.386 0 50s22.386 50 50 50z" fill="#fff"/></g></mask><g mask="url(#mask0_539_310)"><g id="Group"><path id="Vector_2" d="M100 0H0v100h100V0z" fill="#fff"/></g></g></g><g id="Group_2"><path id="Vector_3" d="M29.66 28.683L27.65 27.3l-8.1 11.472-.519.725 1.81 1.39 8.818-12.204zm-7.423 13.152l2.015 1.383 8.613-12.197-1.803-1.347L22.703 41.2l-.466.635zm3.412 2.374l1.802 1.387 8.82-12.237-2.01-1.347-4.596 6.517-4.017 5.68h.001zm51.03-1.696l.89-.678-8.633-12.161-1.989 1.347 8.82 12.197.91-.705h.001zm-7.889-5.074l.552-.383-3.605-5.044-2.008 1.347 3.611 5.078 1.45-.998zm5.573 6.77l-.864-1.247-2.753-3.981-2.002 1.393 3.811 5.221 1.81-1.387-.002.001zm4.602-3.322l1.15-.802.851-.588-3.804-5.184-1.802 1.35 3.605 5.224zm-3.857-7.914l.851-.599-3.81-5.074-1.797 1.383 3.605 5.084 1.151-.795v.001zM26.68 55.15l-.832.635 8.612 12.204 2.01-1.39-8.82-12.194-.97.745zm-4.237 2.979l.306.426 3.492 4.798 1.816-1.393-3.605-5.224-1.137.785-.87.609-.002-.001zm5.86 6.617l-.653.506 3.618 5.081 1.796-1.361-3.605-5.114-1.158.887.001.001zm-8.307-4.805l-.765.592.4.545L27.85 72.7l2.014-1.353-8.825-12.234-1.044.828zm57.773-1.812l-1.058-.735-.944-.658-3.618 5.224 1.81 1.393 3.81-5.223v-.001zm-6.039 6.484l-.984-.755-3.605 5.114 1.795 1.361 3.618-5.08-.825-.64h.001zm-.984-3.635l3.618-5.194-.918-.691-.89-.689-3.812 5.217 2.002 1.357zm-2.354 1.244l-1.05-.738-3.612 5.114 2.008 1.39 3.605-5.078-.95-.688zm10.774-3.109l-3.804 5.224 2.002 1.387 3.605-5.19-.79-.626-1.012-.795zm-5.208 7.12l-3.605 5.113 2.002 1.353 3.605-5.074-.93-.645-1.072-.748z" fill="#0A0A0A"/><path id="Vector_4" d="M33.203 55.093c1.862 6.773 8.14 12.835 16.52 12.879 9.53.08 17.204-7.42 17.204-17.378 0-.758-.226-3.09-.226-3.09 0 6.016-4.196 9.787-8.612 9.787-2.095 0-3.957-.888-5.347-2.158-.705-.844-3.957-5.726-4.888-6.874-1.397-1.902-3.724-3.215-6.278-3.215-4.397 0-9.724 4.492-8.394 9.966 0 .016 0 .027.007.039 0 .017 0 .027.014.044z" fill="#0082C5"/><path id="Vector_5" d="M66.681 47.468c-1.662-7.844-8.625-13.787-16.959-13.787-9.31 0-16.992 7.678-16.992 17.172 0 1.48.24 2.88.474 4.28v-.039c-1.398-5.514 3.956-10.049 8.373-10.049 2.553 0 4.88 1.313 6.278 3.215.93 1.148 4.183 6.03 4.888 6.874 1.39 1.27 3.252 2.158 5.346 2.158 4.403 0 8.573-3.75 8.612-9.73l-.02-.093z" fill="#D42D40"/></g></g><defs><clipPath id="clip0_539_310"><path fill="#fff" d="M0 0h100v100H0z"/></clipPath></defs></svg>