<svg width="100" height="100" fill="none" xmlns="http://www.w3.org/2000/svg"><g id="Layer_1" clip-path="url(#clip0_539_223)"><g id="Clip path group"><mask id="mask0_539_223" style="mask-type:luminance" maskUnits="userSpaceOnUse" x="0" y="0" width="100" height="100"><g id="clippath"><path id="Vector" d="M50 100c27.614 0 50-22.386 50-50S77.614 0 50 0 0 22.386 0 50s22.386 50 50 50z" fill="#fff"/></g></mask><g mask="url(#mask0_539_223)"><g id="Group"><g id="Group_2"><path id="Vector_2" d="M100 0H0v100h100V0z" fill="#0054A5"/><path id="Vector_3" d="M31.974 75.207l2.707-4.086-4.599 1.744-1.514-4.66-1.514 4.66-4.576-1.744 2.69 4.086L21 77.702l4.836.426-.644 4.848 3.376-3.554 3.399 3.554-.674-4.848 4.866-.426-4.186-2.495h.001zm43.362-40.938l-.308 2.294 1.596-1.68 1.614 1.68-.319-2.294 2.305-.201-1.986-1.188 1.289-1.928-2.176.828-.727-2.222-.703 2.222-2.181-.828 1.271 1.928-1.975 1.188 2.3.2zm2.903 33.327l1.289-1.934-2.176.828-.727-2.211-.703 2.21-2.181-.827 1.271 1.934-1.975 1.182 2.3.206-.308 2.3 1.596-1.696 1.614 1.696-.319-2.3 2.305-.206-1.986-1.182zm13.563-22.903l-1.987-1.183 1.283-1.94-2.181.829-.716-2.205-.715 2.205-2.176-.828 1.271 1.939-1.968 1.183 2.288.195-.301 2.294 1.602-1.68 1.608 1.68-.319-2.294 2.312-.195h-.001zm-26.575 2.299l1.283-1.94-2.187.823-.709-2.212-.716 2.212-2.175-.822 1.271 1.939-1.969 1.17 2.294.208-.313 2.3 1.608-1.68 1.614 1.68-.325-2.3 2.306-.207-1.981-1.171h-.001zm17.121 5.114l-.514-1.573-.497 1.567-1.661.006 1.348.975-.515 1.573 1.33-.981 1.342.969-.52-1.578 1.336-.964-1.65.006h.001z" fill="#fff"/><path id="Vector_4" d="M41.6 50H50v-8.4l-8.55-8.55H50v-16.1h-8.55L50 8.4V0h-8.4l-8.55 8.55V0h-16.1v8.55L8.4 0H0v50h8.4l8.55-8.55V50h16.1v-8.55L41.6 50z" fill="#fff"/><path id="Vector_5" d="M50 20H30V0H20v20H0v10h20v20h10V30h20V20z" fill="#EC1C24"/><path id="Vector_6" d="M33.05 33.05v.6L49.4 50h.6v-4.6L37.65 33.05h-4.6zM0 49.4v.6h4.6l12.35-12.35v-4.6h-.6L0 49.4zM45.4 0L33.05 12.35v4.6h.6L50 .6V0h-4.6zM0 0v4.6l12.35 12.35h4.6v-.6L.6 0H0z" fill="#EC1C24"/></g></g></g></g></g><defs><clipPath id="clip0_539_223"><path fill="#fff" d="M0 0h100v100H0z"/></clipPath></defs></svg>