<svg width="100" height="100" fill="none" xmlns="http://www.w3.org/2000/svg"><g id="Layer_1" clip-path="url(#clip0_539_260)"><g id="Clip path group"><mask id="mask0_539_260" style="mask-type:luminance" maskUnits="userSpaceOnUse" x="0" y="0" width="100" height="100"><g id="clippath"><path id="Vector" d="M50 100c27.614 0 50-22.386 50-50S77.614 0 50 0 0 22.386 0 50s22.386 50 50 50z" fill="#fff"/></g></mask><g mask="url(#mask0_539_260)"><g id="Group"><g id="Group_2"><path id="Vector_2" d="M100 88.96H0V100h100V88.96z" fill="#008ED3"/><path id="Vector_3" d="M100 77.84H0v11.04h100V77.84z" fill="#fff"/><path id="Vector_4" d="M100 66.72H0v11.04h100V66.72z" fill="#008ED3"/><path id="Vector_5" d="M100 55.6H0v11.04h100V55.6z" fill="#fff"/><path id="Vector_6" d="M100 44.48H0v11.04h100V44.48z" fill="#008ED3"/><path id="Vector_7" d="M100 33.36H0V44.4h100V33.36z" fill="#fff"/><path id="Vector_8" d="M100 22.24H0v11.04h100V22.24z" fill="#008ED3"/><path id="Vector_9" d="M100 0H0v11.04h100V0z" fill="#008ED3"/><path id="Vector_10" d="M100 11.12H0v11.04h100V11.12z" fill="#fff"/><path id="Vector_11" d="M55.528.091H.008v55.386h55.52V.091z" fill="#008ED3"/><path id="Vector_12" d="M55.5 22.24H0v11.04h55.5V22.24z" fill="#fff"/><path id="Vector_13" d="M33.27.01H22.23v55.5h11.04V.01z" fill="#fff"/></g></g></g></g></g><defs><clipPath id="clip0_539_260"><path fill="#fff" d="M0 0h100v100H0z"/></clipPath></defs></svg>