<svg width="100" height="100" fill="none" xmlns="http://www.w3.org/2000/svg"><g id="Layer_1" clip-path="url(#clip0_539_284)"><g id="Clip path group"><mask id="mask0_539_284" style="mask-type:luminance" maskUnits="userSpaceOnUse" x="0" y="0" width="100" height="100"><g id="clippath"><path id="Vector" d="M50 100c27.614 0 50-22.386 50-50S77.614 0 50 0 0 22.386 0 50s22.386 50 50 50z" fill="#fff"/></g></mask><g mask="url(#mask0_539_284)"><g id="Group"><g id="Group_2"><path id="Vector_2" d="M100 0H0v100h100V0z" fill="#C21718"/><g id="Group_3" fill="#fff"><path id="Vector_3" d="M28.378 50.494c-.21-14.027 10.396-25.92 24.837-29.278-2.258-.598-4.611-.931-7.043-.896-15.331.236-27.555 13.71-27.309 30.102.249 16.388 12.882 29.488 28.218 29.252a26.024 26.024 0 006.17-.86C39.127 75.62 28.592 64.24 28.378 50.493z"/><path id="Vector_4" d="M51.263 41.011l4.482 5.768 7.109-2.534-4.071 6.334 4.334 5.804-7.163-1.844-4.223 6.018-.32-7.332-6.954-2.263 6.718-2.57.088-7.381z"/></g></g></g></g></g></g><defs><clipPath id="clip0_539_284"><path fill="#fff" d="M0 0h100v100H0z"/></clipPath></defs></svg>