<svg width="100" height="100" fill="none" xmlns="http://www.w3.org/2000/svg"><g clip-path="url(#clip0_539_104)"><mask id="mask0_539_104" style="mask-type:luminance" maskUnits="userSpaceOnUse" x="0" y="0" width="100" height="100"><path d="M50 100c27.614 0 50-22.386 50-50S77.614 0 50 0 0 22.386 0 50s22.386 50 50 50z" fill="#fff"/></mask><g mask="url(#mask0_539_104)"><path d="M100 92.35H0V100h100v-7.65z" fill="#C32026"/><path d="M100 84.655H0v7.65h100v-7.65z" fill="#fff"/><path d="M100 76.959H0v7.65h100v-7.65z" fill="#C32026"/><path d="M100 69.263H0v7.65h100v-7.65z" fill="#fff"/><path d="M100 61.567H0v7.65h100v-7.65z" fill="#C32026"/><path d="M100 53.871H0v7.65h100v-7.65z" fill="#fff"/><path d="M100 46.175H0v7.65h100v-7.65z" fill="#C32026"/><path d="M100 38.478H0v7.65h100v-7.65z" fill="#fff"/><path d="M100 30.783H0v7.65h100v-7.65z" fill="#C32026"/><path d="M100 23.088H0v7.65h100v-7.65z" fill="#fff"/><path d="M100 15.392H0v7.65h100v-7.65zM100 0H0v7.65h100V0z" fill="#C32026"/><path d="M100 7.696H0v7.65h100v-7.65z" fill="#fff"/><path d="M70.247 0H0v53.8h70.247V0z" fill="#0071BB"/><g clip-path="url(#clip1_539_104)"><path d="M6.194 4.551l-1.429-.017-.49-1.334-.448 1.324-1.46.026 1.188.868-.434 1.35 1.18-.807 1.147.807-.399-1.359 1.144-.859.001.001z" fill="#fff"/></g><g clip-path="url(#clip2_539_104)"><path d="M6.194 15.301l-1.429-.017-.49-1.334-.448 1.324-1.46.026 1.188.868-.434 1.35 1.18-.807 1.147.807-.399-1.359 1.144-.859.001.001z" fill="#fff"/></g><g clip-path="url(#clip3_539_104)"><path d="M6.194 26.051l-1.429-.017-.49-1.334-.448 1.324-1.46.026 1.188.868-.434 1.35 1.18-.807 1.147.807-.399-1.359 1.144-.859.001.001z" fill="#fff"/></g><g clip-path="url(#clip4_539_104)"><path d="M6.194 36.801l-1.429-.017-.49-1.334-.448 1.324-1.46.026 1.188.868-.434 1.35 1.18-.807 1.147.807-.399-1.359 1.144-.859.001.001z" fill="#fff"/></g><g clip-path="url(#clip5_539_104)"><path d="M18.296 15.301l-1.43-.017-.49-1.334-.447 1.324-1.46.026 1.188.868-.434 1.35 1.179-.807 1.148.807-.4-1.359 1.145-.859v.001z" fill="#fff"/></g><g clip-path="url(#clip6_539_104)"><path d="M18.296 26.051l-1.43-.017-.49-1.334-.447 1.324-1.46.026 1.188.868-.434 1.35 1.179-.807 1.148.807-.4-1.359 1.145-.859v.001z" fill="#fff"/></g><g clip-path="url(#clip7_539_104)"><path d="M18.296 36.801l-1.43-.017-.49-1.334-.447 1.324-1.46.026 1.188.868-.434 1.35 1.179-.807 1.148.807-.4-1.359 1.145-.859v.001z" fill="#fff"/></g><g clip-path="url(#clip8_539_104)"><path d="M30.395 15.301l-1.429-.017-.49-1.334-.448 1.324-1.46.026 1.188.868-.434 1.35 1.18-.807 1.147.807-.399-1.359 1.144-.859.001.001z" fill="#fff"/></g><g clip-path="url(#clip9_539_104)"><path d="M30.395 26.051l-1.429-.017-.49-1.334-.448 1.324-1.46.026 1.188.868-.434 1.35 1.18-.807 1.147.807-.399-1.359 1.144-.859.001.001z" fill="#fff"/></g><g clip-path="url(#clip10_539_104)"><path d="M30.395 36.801l-1.429-.017-.49-1.334-.448 1.324-1.46.026 1.188.868-.434 1.35 1.18-.807 1.147.807-.399-1.359 1.144-.859.001.001z" fill="#fff"/></g><g clip-path="url(#clip11_539_104)"><path d="M42.495 15.301l-1.429-.017-.491-1.334-.447 1.324-1.46.026 1.188.868-.434 1.35 1.179-.807 1.148.807-.399-1.359 1.144-.859.001.001z" fill="#fff"/></g><g clip-path="url(#clip12_539_104)"><path d="M42.495 26.051l-1.429-.017-.491-1.334-.447 1.324-1.46.026 1.188.868-.434 1.35 1.179-.807 1.148.807-.399-1.359 1.144-.859.001.001z" fill="#fff"/></g><g clip-path="url(#clip13_539_104)"><path d="M42.495 36.801l-1.429-.017-.491-1.334-.447 1.324-1.46.026 1.188.868-.434 1.35 1.179-.807 1.148.807-.399-1.359 1.144-.859.001.001z" fill="#fff"/></g><g clip-path="url(#clip14_539_104)"><path d="M54.595 15.301l-1.43-.017-.49-1.334-.447 1.324-1.46.026 1.188.868-.434 1.35 1.179-.807 1.148.807-.4-1.359 1.145-.859v.001z" fill="#fff"/></g><g clip-path="url(#clip15_539_104)"><path d="M54.595 26.051l-1.43-.017-.49-1.334-.447 1.324-1.46.026 1.188.868-.434 1.35 1.179-.807 1.148.807-.4-1.359 1.145-.859v.001z" fill="#fff"/></g><g clip-path="url(#clip16_539_104)"><path d="M54.595 36.801l-1.43-.017-.49-1.334-.447 1.324-1.46.026 1.188.868-.434 1.35 1.179-.807 1.148.807-.4-1.359 1.145-.859v.001z" fill="#fff"/></g><g clip-path="url(#clip17_539_104)"><path d="M66.694 15.301l-1.429-.017-.49-1.334-.448 1.324-1.46.026 1.188.868-.434 1.35 1.18-.807 1.147.807-.399-1.359 1.144-.859.001.001z" fill="#fff"/></g><g clip-path="url(#clip18_539_104)"><path d="M66.694 26.051l-1.429-.017-.49-1.334-.448 1.324-1.46.026 1.188.868-.434 1.35 1.18-.807 1.147.807-.399-1.359 1.144-.859.001.001z" fill="#fff"/></g><g clip-path="url(#clip19_539_104)"><path d="M66.694 36.801l-1.429-.017-.49-1.334-.448 1.324-1.46.026 1.188.868-.434 1.35 1.18-.807 1.147.807-.399-1.359 1.144-.859.001.001z" fill="#fff"/></g><g clip-path="url(#clip20_539_104)"><path d="M66.694 4.551l-1.429-.017-.49-1.334-.448 1.324-1.46.026 1.188.868-.434 1.35 1.18-.807 1.147.807-.399-1.359 1.144-.859.001.001z" fill="#fff"/></g><g clip-path="url(#clip21_539_104)"><path d="M6.194 47.551l-1.429-.017-.49-1.334-.448 1.324-1.46.026 1.188.868-.434 1.35 1.18-.807 1.147.807-.399-1.359 1.144-.859.001.001z" fill="#fff"/></g><g clip-path="url(#clip22_539_104)"><path d="M18.296 47.551l-1.43-.017-.49-1.334-.447 1.324-1.46.026 1.188.868-.434 1.35 1.179-.807 1.148.807-.4-1.359 1.145-.859v.001z" fill="#fff"/></g><g clip-path="url(#clip23_539_104)"><path d="M30.395 47.551l-1.429-.017-.49-1.334-.448 1.324-1.46.026 1.188.868-.434 1.35 1.18-.807 1.147.807-.399-1.359 1.144-.859.001.001z" fill="#fff"/></g><g clip-path="url(#clip24_539_104)"><path d="M42.495 47.551l-1.429-.017-.491-1.334-.447 1.324-1.46.026 1.188.868-.434 1.35 1.179-.807 1.148.807-.399-1.359 1.144-.859.001.001z" fill="#fff"/></g><g clip-path="url(#clip25_539_104)"><path d="M54.595 47.551l-1.43-.017-.49-1.334-.447 1.324-1.46.026 1.188.868-.434 1.35 1.179-.807 1.148.807-.4-1.359 1.145-.859v.001z" fill="#fff"/></g><g clip-path="url(#clip26_539_104)"><path d="M12.245 42.176l-1.429-.017-.491-1.334-.447 1.324-1.46.026 1.188.868-.434 1.35 1.179-.807 1.148.807-.399-1.359 1.144-.859.001.001z" fill="#fff"/></g><g clip-path="url(#clip27_539_104)"><path d="M24.345 42.176l-1.43-.017-.49-1.334-.447 1.324-1.46.026 1.188.868-.434 1.35 1.179-.807 1.148.807-.4-1.359 1.145-.859v.001z" fill="#fff"/></g><g clip-path="url(#clip28_539_104)"><path d="M36.444 42.176l-1.429-.017-.49-1.334-.448 1.324-1.46.026 1.188.868-.434 1.35 1.18-.807 1.147.807-.399-1.359 1.144-.859.001.001z" fill="#fff"/></g><g clip-path="url(#clip29_539_104)"><path d="M48.546 42.176l-1.43-.017-.49-1.334-.447 1.324-1.46.026 1.188.868-.434 1.35 1.179-.807 1.148.807-.4-1.359 1.145-.859v.001z" fill="#fff"/></g><g clip-path="url(#clip30_539_104)"><path d="M60.645 42.176l-1.429-.017-.49-1.334-.448 1.324-1.46.026 1.188.868-.434 1.35 1.18-.807 1.147.807-.399-1.359 1.144-.859.001.001z" fill="#fff"/></g><g clip-path="url(#clip31_539_104)"><path d="M12.245 9.926l-1.429-.017-.491-1.334-.447 1.324-1.46.026 1.188.868-.434 1.35 1.179-.807 1.148.807-.399-1.359 1.144-.859h.001z" fill="#fff"/></g><g clip-path="url(#clip32_539_104)"><path d="M24.345 9.926l-1.43-.017-.49-1.334-.447 1.324-1.46.026 1.188.868-.434 1.35 1.179-.807 1.148.807-.4-1.359 1.145-.859z" fill="#fff"/></g><g clip-path="url(#clip33_539_104)"><path d="M36.444 9.926l-1.429-.017-.49-1.334-.448 1.324-1.46.026 1.188.868-.434 1.35 1.18-.807 1.147.807-.399-1.359 1.144-.859h.001z" fill="#fff"/></g><g clip-path="url(#clip34_539_104)"><path d="M48.546 9.926l-1.43-.017-.49-1.334-.447 1.324-1.46.026 1.188.868-.434 1.35 1.179-.807 1.148.807-.4-1.359 1.145-.859z" fill="#fff"/></g><g clip-path="url(#clip35_539_104)"><path d="M60.645 9.926l-1.429-.017-.49-1.334-.448 1.324-1.46.026 1.188.868-.434 1.35 1.18-.807 1.147.807-.399-1.359 1.144-.859h.001z" fill="#fff"/></g><g clip-path="url(#clip36_539_104)"><path d="M12.245 20.676l-1.429-.017-.491-1.334-.447 1.324-1.46.026 1.188.868-.434 1.35 1.179-.807 1.148.807-.399-1.359 1.144-.859.001.001z" fill="#fff"/></g><g clip-path="url(#clip37_539_104)"><path d="M24.345 20.676l-1.43-.017-.49-1.334-.447 1.324-1.46.026 1.188.868-.434 1.35 1.179-.807 1.148.807-.4-1.359 1.145-.859v.001z" fill="#fff"/></g><g clip-path="url(#clip38_539_104)"><path d="M36.444 20.676l-1.429-.017-.49-1.334-.448 1.324-1.46.026 1.188.868-.434 1.35 1.18-.807 1.147.807-.399-1.359 1.144-.859.001.001z" fill="#fff"/></g><g clip-path="url(#clip39_539_104)"><path d="M48.546 20.676l-1.43-.017-.49-1.334-.447 1.324-1.46.026 1.188.868-.434 1.35 1.179-.807 1.148.807-.4-1.359 1.145-.859v.001z" fill="#fff"/></g><g clip-path="url(#clip40_539_104)"><path d="M60.645 20.676l-1.429-.017-.49-1.334-.448 1.324-1.46.026 1.188.868-.434 1.35 1.18-.807 1.147.807-.399-1.359 1.144-.859.001.001z" fill="#fff"/></g><g clip-path="url(#clip41_539_104)"><path d="M12.245 31.426l-1.429-.017-.491-1.334-.447 1.324-1.46.026 1.188.868-.434 1.35 1.179-.807 1.148.807-.399-1.359 1.144-.859.001.001z" fill="#fff"/></g><g clip-path="url(#clip42_539_104)"><path d="M24.345 31.426l-1.43-.017-.49-1.334-.447 1.324-1.46.026 1.188.868-.434 1.35 1.179-.807 1.148.807-.4-1.359 1.145-.859v.001z" fill="#fff"/></g><g clip-path="url(#clip43_539_104)"><path d="M36.444 31.426l-1.429-.017-.49-1.334-.448 1.324-1.46.026 1.188.868-.434 1.35 1.18-.807 1.147.807-.399-1.359 1.144-.859.001.001z" fill="#fff"/></g><g clip-path="url(#clip44_539_104)"><path d="M48.546 31.426l-1.43-.017-.49-1.334-.447 1.324-1.46.026 1.188.868-.434 1.35 1.179-.807 1.148.807-.4-1.359 1.145-.859v.001z" fill="#fff"/></g><g clip-path="url(#clip45_539_104)"><path d="M60.645 31.426l-1.429-.017-.49-1.334-.448 1.324-1.46.026 1.188.868-.434 1.35 1.18-.807 1.147.807-.399-1.359 1.144-.859.001.001z" fill="#fff"/></g><g clip-path="url(#clip46_539_104)"><path d="M18.296 4.551l-1.43-.017-.49-1.334-.447 1.324-1.46.026 1.188.868-.434 1.35 1.179-.807 1.148.807-.4-1.359 1.145-.859v.001z" fill="#fff"/></g><g clip-path="url(#clip47_539_104)"><path d="M30.395 4.551l-1.429-.017-.49-1.334-.448 1.324-1.46.026 1.188.868-.434 1.35 1.18-.807 1.147.807-.399-1.359 1.144-.859.001.001z" fill="#fff"/></g><g clip-path="url(#clip48_539_104)"><path d="M42.495 4.551l-1.429-.017-.491-1.334-.447 1.324-1.46.026 1.188.868-.434 1.35 1.179-.807 1.148.807-.399-1.359 1.144-.859.001.001z" fill="#fff"/></g><g clip-path="url(#clip49_539_104)"><path d="M54.595 4.551l-1.43-.017-.49-1.334-.447 1.324-1.46.026 1.188.868-.434 1.35L52.7 5.96l1.148.807-.4-1.359 1.145-.859v.001z" fill="#fff"/></g><g clip-path="url(#clip50_539_104)"><path d="M66.694 47.551l-1.429-.017-.49-1.334-.448 1.324-1.46.026 1.188.868-.434 1.35 1.18-.807 1.147.807-.399-1.359 1.144-.859.001.001z" fill="#fff"/></g></g></g><defs><clipPath id="clip0_539_104"><path fill="#fff" d="M0 0h100v100H0z"/></clipPath><clipPath id="clip1_539_104"><path fill="#fff" transform="translate(2.367 3.2)" d="M0 0h3.827v3.569H0z"/></clipPath><clipPath id="clip2_539_104"><path fill="#fff" transform="translate(2.367 13.95)" d="M0 0h3.827v3.569H0z"/></clipPath><clipPath id="clip3_539_104"><path fill="#fff" transform="translate(2.367 24.7)" d="M0 0h3.827v3.569H0z"/></clipPath><clipPath id="clip4_539_104"><path fill="#fff" transform="translate(2.367 35.45)" d="M0 0h3.827v3.569H0z"/></clipPath><clipPath id="clip5_539_104"><path fill="#fff" transform="translate(14.469 13.95)" d="M0 0h3.827v3.569H0z"/></clipPath><clipPath id="clip6_539_104"><path fill="#fff" transform="translate(14.469 24.7)" d="M0 0h3.827v3.569H0z"/></clipPath><clipPath id="clip7_539_104"><path fill="#fff" transform="translate(14.469 35.45)" d="M0 0h3.827v3.569H0z"/></clipPath><clipPath id="clip8_539_104"><path fill="#fff" transform="translate(26.568 13.95)" d="M0 0h3.827v3.569H0z"/></clipPath><clipPath id="clip9_539_104"><path fill="#fff" transform="translate(26.568 24.7)" d="M0 0h3.827v3.569H0z"/></clipPath><clipPath id="clip10_539_104"><path fill="#fff" transform="translate(26.568 35.45)" d="M0 0h3.827v3.569H0z"/></clipPath><clipPath id="clip11_539_104"><path fill="#fff" transform="translate(38.668 13.95)" d="M0 0h3.827v3.569H0z"/></clipPath><clipPath id="clip12_539_104"><path fill="#fff" transform="translate(38.668 24.7)" d="M0 0h3.827v3.569H0z"/></clipPath><clipPath id="clip13_539_104"><path fill="#fff" transform="translate(38.668 35.45)" d="M0 0h3.827v3.569H0z"/></clipPath><clipPath id="clip14_539_104"><path fill="#fff" transform="translate(50.768 13.95)" d="M0 0h3.827v3.569H0z"/></clipPath><clipPath id="clip15_539_104"><path fill="#fff" transform="translate(50.768 24.7)" d="M0 0h3.827v3.569H0z"/></clipPath><clipPath id="clip16_539_104"><path fill="#fff" transform="translate(50.768 35.45)" d="M0 0h3.827v3.569H0z"/></clipPath><clipPath id="clip17_539_104"><path fill="#fff" transform="translate(62.867 13.95)" d="M0 0h3.827v3.569H0z"/></clipPath><clipPath id="clip18_539_104"><path fill="#fff" transform="translate(62.867 24.7)" d="M0 0h3.827v3.569H0z"/></clipPath><clipPath id="clip19_539_104"><path fill="#fff" transform="translate(62.867 35.45)" d="M0 0h3.827v3.569H0z"/></clipPath><clipPath id="clip20_539_104"><path fill="#fff" transform="translate(62.867 3.2)" d="M0 0h3.827v3.569H0z"/></clipPath><clipPath id="clip21_539_104"><path fill="#fff" transform="translate(2.367 46.2)" d="M0 0h3.827v3.569H0z"/></clipPath><clipPath id="clip22_539_104"><path fill="#fff" transform="translate(14.469 46.2)" d="M0 0h3.827v3.569H0z"/></clipPath><clipPath id="clip23_539_104"><path fill="#fff" transform="translate(26.568 46.2)" d="M0 0h3.827v3.569H0z"/></clipPath><clipPath id="clip24_539_104"><path fill="#fff" transform="translate(38.668 46.2)" d="M0 0h3.827v3.569H0z"/></clipPath><clipPath id="clip25_539_104"><path fill="#fff" transform="translate(50.768 46.2)" d="M0 0h3.827v3.569H0z"/></clipPath><clipPath id="clip26_539_104"><path fill="#fff" transform="translate(8.418 40.825)" d="M0 0h3.827v3.569H0z"/></clipPath><clipPath id="clip27_539_104"><path fill="#fff" transform="translate(20.518 40.825)" d="M0 0h3.827v3.569H0z"/></clipPath><clipPath id="clip28_539_104"><path fill="#fff" transform="translate(32.617 40.825)" d="M0 0h3.827v3.569H0z"/></clipPath><clipPath id="clip29_539_104"><path fill="#fff" transform="translate(44.719 40.825)" d="M0 0h3.827v3.569H0z"/></clipPath><clipPath id="clip30_539_104"><path fill="#fff" transform="translate(56.818 40.825)" d="M0 0h3.827v3.569H0z"/></clipPath><clipPath id="clip31_539_104"><path fill="#fff" transform="translate(8.418 8.575)" d="M0 0h3.827v3.569H0z"/></clipPath><clipPath id="clip32_539_104"><path fill="#fff" transform="translate(20.518 8.575)" d="M0 0h3.827v3.569H0z"/></clipPath><clipPath id="clip33_539_104"><path fill="#fff" transform="translate(32.617 8.575)" d="M0 0h3.827v3.569H0z"/></clipPath><clipPath id="clip34_539_104"><path fill="#fff" transform="translate(44.719 8.575)" d="M0 0h3.827v3.569H0z"/></clipPath><clipPath id="clip35_539_104"><path fill="#fff" transform="translate(56.818 8.575)" d="M0 0h3.827v3.569H0z"/></clipPath><clipPath id="clip36_539_104"><path fill="#fff" transform="translate(8.418 19.325)" d="M0 0h3.827v3.569H0z"/></clipPath><clipPath id="clip37_539_104"><path fill="#fff" transform="translate(20.518 19.325)" d="M0 0h3.827v3.569H0z"/></clipPath><clipPath id="clip38_539_104"><path fill="#fff" transform="translate(32.617 19.325)" d="M0 0h3.827v3.569H0z"/></clipPath><clipPath id="clip39_539_104"><path fill="#fff" transform="translate(44.719 19.325)" d="M0 0h3.827v3.569H0z"/></clipPath><clipPath id="clip40_539_104"><path fill="#fff" transform="translate(56.818 19.325)" d="M0 0h3.827v3.569H0z"/></clipPath><clipPath id="clip41_539_104"><path fill="#fff" transform="translate(8.418 30.075)" d="M0 0h3.827v3.569H0z"/></clipPath><clipPath id="clip42_539_104"><path fill="#fff" transform="translate(20.518 30.075)" d="M0 0h3.827v3.569H0z"/></clipPath><clipPath id="clip43_539_104"><path fill="#fff" transform="translate(32.617 30.075)" d="M0 0h3.827v3.569H0z"/></clipPath><clipPath id="clip44_539_104"><path fill="#fff" transform="translate(44.719 30.075)" d="M0 0h3.827v3.569H0z"/></clipPath><clipPath id="clip45_539_104"><path fill="#fff" transform="translate(56.818 30.075)" d="M0 0h3.827v3.569H0z"/></clipPath><clipPath id="clip46_539_104"><path fill="#fff" transform="translate(14.469 3.2)" d="M0 0h3.827v3.569H0z"/></clipPath><clipPath id="clip47_539_104"><path fill="#fff" transform="translate(26.568 3.2)" d="M0 0h3.827v3.569H0z"/></clipPath><clipPath id="clip48_539_104"><path fill="#fff" transform="translate(38.668 3.2)" d="M0 0h3.827v3.569H0z"/></clipPath><clipPath id="clip49_539_104"><path fill="#fff" transform="translate(50.768 3.2)" d="M0 0h3.827v3.569H0z"/></clipPath><clipPath id="clip50_539_104"><path fill="#fff" transform="translate(62.867 46.2)" d="M0 0h3.827v3.569H0z"/></clipPath></defs></svg>