<svg width="100" height="100" fill="none" xmlns="http://www.w3.org/2000/svg"><g id="Layer_1" clip-path="url(#clip0_539_302)"><g id="Clip path group"><mask id="mask0_539_302" style="mask-type:luminance" maskUnits="userSpaceOnUse" x="0" y="0" width="100" height="100"><g id="clippath"><path id="Vector" d="M50 100c27.614 0 50-22.386 50-50S77.614 0 50 0 0 22.386 0 50s22.386 50 50 50z" fill="#fff"/></g></mask><g mask="url(#mask0_539_302)"><g id="Group"><g id="Group_2"><path id="Vector_2" d="M100 0H0v100h100V0z" fill="#C32026"/><path id="Vector_3" d="M36.965 16.916l1.545-1.002 1.492 1.096-.503-1.791 1.492-1.114-1.831-.071-.597-1.794-.638 1.79-1.84-.026 1.44 1.185-.561 1.728v-.001zm4.872 7.269l-.556 1.738 1.54-1.012 1.493 1.105-.507-1.786 1.496-1.114-1.826-.071-.601-1.808-.632 1.803L40.4 23l1.439 1.185h-.002zm3.58 9.136l-1.816-.067-.597-1.804-.633 1.8-1.848-.036 1.443 1.185-.57 1.732 1.554-1.011 1.492 1.1-.517-1.786 1.492-1.114v.001zm-6.814 9.171l-.592-1.809-.632 1.804-1.85-.045 1.436 1.19-.557 1.732 1.55-1.007 1.492 1.105-.516-1.786 1.492-1.122-1.823-.062zM25.205 25.521l-2.811-8.45-2.95 8.428-8.64-.165 6.73 5.55-2.623 8.098 7.247-4.717 6.984 5.153-2.405-8.356 7.02-5.22-8.552-.321z" fill="#FFF100"/></g></g></g></g></g><defs><clipPath id="clip0_539_302"><path fill="#fff" d="M0 0h100v100H0z"/></clipPath></defs></svg>