<svg width="229" height="231" fill="none" xmlns="http://www.w3.org/2000/svg"><g id="Layer_1" clip-path="url(#clip0_316_761)"><path id="Vector" d="M114.5 0v.035C51.28.035 0 51.72 0 115.517S51.246 231 114.5 231 229 179.314 229 115.517C229 51.721 177.72 0 114.5 0zm0 217.306c-55.66 0-100.951-45.679-100.951-101.818 0-56.138 45.29-101.817 100.951-101.817 55.661 0 100.951 45.68 100.951 101.817 0 56.139-45.29 101.818-100.951 101.818zm61.834-109.279L88.23 56.73a8.332 8.332 0 00-4.248-1.171c-4.443 0-8.53 3.6-8.53 8.597v102.63c0 5.032 4.087 8.603 8.53 8.603a8.328 8.328 0 004.248-1.171l88.104-51.297c5.697-3.31 5.697-11.589 0-14.9v.006zm-87.362 50.027V72.928l73.107 42.56-73.107 42.561v.005z" fill="#fff"/></g><defs><clipPath id="clip0_316_761"><path fill="#fff" d="M0 0h229v231H0z"/></clipPath></defs></svg>