<svg width="492" height="95" fill="none" xmlns="http://www.w3.org/2000/svg"><g clip-path="url(#clip0_316_844)"><path d="M56.421 49.807c1.302-3.034 1.95-5.88 1.95-8.539 0-1.95-.473-3.617-1.414-4.999-.945-1.382-2.315-2.076-4.119-2.076-.829 0-1.501.241-2.018.723-.517.481-.77 1.103-.77 1.864 0 1.16.755 1.989 2.271 2.5 1.287.423 1.93 1.386 1.93 2.88 0 2.513-.886 5.379-2.66 8.6a29.962 29.962 0 01-6.757 8.346c-2.73 2.346-5.314 3.516-7.742 3.516-1.057 0-1.925-.39-2.593-1.165-.673-.776-1.01-1.744-1.01-2.904 0-5.115 2.234-9.252 6.694-12.416 4.631-3.333 6.947-6.145 6.947-8.433 0-1.132-.444-1.695-1.331-1.695-.6 0-1.775.482-3.515 1.44-1.628 1.045-2.998 2.105-4.095 3.179a32.16 32.16 0 00-3.173 3.621c-1.014 1.344-1.896 2.38-2.637 3.116-.371.395-.902.843-1.59 1.334-.687.491-1.209.94-1.565 1.334a2.066 2.066 0 00-.443.761c-7.395 6.974-13.45 10.47-18.149 10.47-1.945 0-3.388-.51-4.334-1.527-.945-1.016-1.413-2.374-1.413-4.07 0-1.974.477-4.044 1.438-6.207a23.29 23.29 0 013.69-5.846 19.663 19.663 0 015.255-4.301c1.999-1.132 3.958-1.695 5.874-1.695.258 0 .527.106.814.317.288.212.43.545.43.997 0 .535-.293 1.132-.878 1.782a27.035 27.035 0 00-1.76 2.182c-.585.804-.878 1.661-.878 2.562 0 .395.215.756.644 1.079.429.322.887.486 1.375.486 1.574 0 3.022-.939 4.353-2.817 1.33-1.878 1.994-3.805 1.994-5.784 0-1.556-.532-2.697-1.59-3.434-1.058-.732-2.471-1.103-4.246-1.103-2.003 0-4.06.439-6.176 1.315a22.798 22.798 0 00-5.855 3.54 32.95 32.95 0 00-4.826 4.936C3.115 45.482 2 47.4 1.2 49.416.4 51.436 0 53.352 0 55.158c0 3.078.8 5.616 2.403 7.605 1.6 1.994 3.817 2.986 6.65 2.986 3.543 0 8.019-1.792 13.425-5.38a52.084 52.084 0 006.97-5.399c-.038.275-.087.588-.15.944-.171.988-.259 1.782-.259 2.375 0 1.41.166 2.72.493 3.92.331 1.2.999 2.283 2.018 3.241 1.014.959 2.325 1.44 3.924 1.44 2.832 0 5.67-.833 8.511-2.5a27.43 27.43 0 007.376-6.27 34.172 34.172 0 005.06-8.327v.015zm28.718 5.697c-1.458 0-3.51.578-6.157 1.739-2.647 1.16-4.198 1.738-4.656 1.738-.487 0-.731-.226-.731-.679 0-1.271.336-2.649 1.01-4.132a26.666 26.666 0 012.446-4.281 313.206 313.206 0 012.876-4.046 29.277 29.277 0 002.443-4.002c.672-1.343 1.009-2.533 1.009-3.578s-.288-1.806-.858-2.374c-.57-.564-1.346-.848-2.316-.848-.37 0-.785.058-1.243.169-1.516.452-3.066 1.29-4.655 2.523-1.59 1.228-2.945 2.485-4.076 3.771a837.93 837.93 0 01-3.924 4.426c-1.487 1.666-2.744 2.952-3.773 3.858-.229.226-.4.467-.517.722-.287.76-.112 1.397.517 1.907.77.621 1.658.496 2.662-.38 1.116-.988 2.588-2.529 4.416-4.619a202.825 202.825 0 014.72-5.235c1.315-1.397 2.212-2.1 2.7-2.1.312 0 .473.227.473.68 0 .707-.81 2.21-2.423 4.512-1.614 2.302-2.725 4.161-3.325 5.572-1.287 2.996-1.93 5.62-1.93 7.884 0 1.271.336 2.345 1.009 3.222.673.876 1.594 1.314 2.764 1.314 1.17 0 3.032-.62 5.489-1.863 2.457-1.243 4.002-1.864 4.631-1.864.946 0 1.414.862 1.414 2.586 0 2.798-1.253 6.251-3.754 10.36-2.5 4.107-5.153 7.661-7.956 10.657-2.603 2.74-5.406 4.85-8.409 6.333-3.002 1.483-5.62 2.225-7.848 2.225-1.229 0-2.194-.303-2.896-.91s-1.053-1.464-1.053-2.562c0-2.033 1.058-4.364 3.174-6.993.516-.68 1.399-1.44 2.661-2.288a38.217 38.217 0 003.218-2.393c.887-.747 1.33-1.479 1.33-2.182 0-.534-.17-.987-.516-1.358a1.636 1.636 0 00-1.243-.549c-.97 0-2.16.535-3.559 1.609-1.399 1.073-2.588 2.176-3.558 3.303-1.575 1.893-2.77 3.603-3.583 5.13a10.372 10.372 0 00-1.224 4.955c0 2.485.707 4.363 2.126 5.635 1.413 1.271 3.31 1.907 5.684 1.907 1.457 0 2.89-.198 4.29-.593 4.002-1.045 8.028-3.289 12.074-6.737 4.046-3.448 7.425-7.33 10.145-11.655 1.257-2.008 2.452-4.469 3.583-7.392 1.13-2.924 1.696-5.5 1.696-7.735 0-1.498-.288-2.711-.858-3.645-.746-1.156-1.916-1.739-3.515-1.739l-.004-.005zm42.654-38.942a25.202 25.202 0 00-2.296-6.501c-1.058-2.047-2.364-3.805-3.924-5.274-1.56-1.469-3.481-2.634-5.767-3.496C113.52.429 110.96 0 108.128 0c-2.345 0-4.563.24-6.649.722-2.087.482-3.973 1.17-5.66 2.076-1.686.905-3.144 1.816-4.372 2.736a43.735 43.735 0 00-3.773 3.197c-.742.737-1.653 1.864-2.726 3.39-1.072 1.527-1.608 2.799-1.608 3.815 0 .51.165.925.492 1.252.327.328.75.487 1.268.487.658 0 1.32-.29 1.993-.867a8.611 8.611 0 001.697-1.97c5.689-7.287 12.25-10.932 19.684-10.932 2.745 0 5.26.679 7.546 2.032 2.287 1.358 3.988 3.106 5.104 5.254 1.945 3.617 2.916 7.951 2.916 13.008 0 7.234-1.819 14.578-5.446 22.033a42.934 42.934 0 01-1.886 3.372c-.77 1.257-1.76 2.663-2.959 4.214a43.712 43.712 0 01-3.71 4.238 19.582 19.582 0 01-4.183 3.197c-1.516.863-2.959 1.291-4.333 1.291-1.029 0-1.545-.693-1.545-2.076 0-2.176.999-5.196 3.002-9.068 1.999-3.872 3.691-6.174 5.06-6.906.142-.087.815-.38 2.019-.891 1.199-.51 2.174-.959 2.915-1.358.741-.395 1.482-.959 2.208-1.696.731-.731 1.092-1.468 1.092-2.205 0-1.272-.517-1.907-1.545-1.907-.429 0-.951.106-1.565.317a11.61 11.61 0 00-1.609.68c-.458.24-.999.539-1.628.89-.629.352-.999.56-1.116.617-2.287 1.527-6.849 4.941-13.684 10.253-1 .68-1.501 1.397-1.501 2.163 0 .452.185.823.555 1.122.37.298.77.443 1.2.443.34 0 .74-.087 1.199-.256.458-.168.731-.255.814-.255.112 0 .17.058.17.169 0 .058-.058.197-.17.424a16.08 16.08 0 00-1.93 7.71c0 1.724.385 3.106 1.16 4.151.77 1.046 1.998 1.57 3.69 1.57 2.428 0 4.86-.65 7.293-1.95 2.427-1.3 4.66-3.03 6.693-5.192 2.028-2.162 3.939-4.68 5.728-7.566a55.268 55.268 0 004.523-9.025 61.819 61.819 0 002.896-9.617c.702-3.275 1.053-6.357 1.053-9.237 0-2.572-.234-5-.707-7.287zm133.541 33.476a79.96 79.96 0 01-2.662 2.586 153.234 153.234 0 01-4.075 3.665c-1.604 1.397-3.154 2.577-4.656 3.54-1.501.963-2.652 1.44-3.451 1.44-.8 0-1.272-.453-1.414-1.358-.287-1.922 1.058-6.4 4.032-13.432 1.745-4.18 2.632-6.482 2.661-6.906 0-1.527-.643-2.288-1.93-2.288-1.628 0-3.617 1.161-5.962 3.473a105.682 105.682 0 00-3.476 3.833 197.392 197.392 0 00-3.495 4.214 925.777 925.777 0 01-3.066 3.771c-.088.116-.185.24-.302.38-2.233 2.654-4.003 4.378-5.319 5.168-1.028.592-1.428.299-1.199-.89.57-2.939 1.589-6.286 3.047-10.042.229-.65.736-1.845 1.521-3.578a71.633 71.633 0 002.018-4.918c.556-1.54.848-2.846.877-3.92 0-1.806-.858-2.711-2.574-2.711-.945 0-1.779.212-2.51.636-.731.423-1.292.895-1.697 1.42-.399.525-.994 1.373-1.779 2.543a49.993 49.993 0 01-2.081 2.904c-.688.906-1.78 2.442-3.281 4.619a487.796 487.796 0 01-4.31 6.145 157.76 157.76 0 01-4.353 5.803c-1.53 1.95-2.954 3.482-4.265 4.6-1.316 1.117-2.389 1.632-3.218 1.545-.828-.11-1.272-.727-1.33-1.844-.059-1.118.151-2.36.624-3.728a26.977 26.977 0 011.779-4.045c.37-.79.385-1.484.044-2.076-.22-.38-.502-.636-.839-.775a2.138 2.138 0 00-.385-.178c-.614-.212-1.194-.049-1.735.486l-.337.327c-.214.174-.424.38-.633.617-7.722 7.47-13.606 11.216-17.642 11.216-1.804 0-3.383-.534-4.739-1.608-1.36-1.074-2.037-2.77-2.037-5.086 0-.366.058-1.002.17-1.907.059-.255.381-.515.966-.785a46.25 46.25 0 012.271-.954c.931-.366 1.638-.679 2.121-.934a171.77 171.77 0 013.368-1.782c1.531-.79 2.73-1.42 3.603-1.888.872-.467 1.911-1.107 3.11-1.926 1.199-.819 2.13-1.58 2.788-2.288.658-.708 1.229-1.565 1.716-2.586a7.256 7.256 0 00.731-3.178c0-1.551-.521-2.774-1.564-3.665-1.044-.891-2.311-1.334-3.798-1.334-2.315 0-4.719.804-7.205 2.412a27.312 27.312 0 00-6.542 5.934 35.67 35.67 0 00-4.631 7.522 25.263 25.263 0 00-.916 2.297c-.405.347-.873.771-1.424 1.286a561.952 561.952 0 01-5.64 5.211c-2.072 1.893-3.612 3.12-4.612 3.69-1.745.934-3.188 1.396-4.333 1.396-.858 0-1.536-.275-2.038-.828-.502-.55-.751-1.378-.751-2.48 0-2.09.814-4.831 2.448-8.222.828-1.753 2.057-3.592 3.69-5.528a239.05 239.05 0 004.075-4.956c1.087-1.368 1.628-2.533 1.628-3.496 0-1.33-.614-1.99-1.842-1.99-.946 0-1.98.502-3.111 1.503-1.13 1.002-2.179 2.245-3.154 3.728a59.964 59.964 0 00-2.51 4.151c-.702 1.286-1.268 2.437-1.697 3.453-.516 1.214-1.408 2.654-2.681 4.32a49.376 49.376 0 01-4.289 4.893 26.75 26.75 0 01-5.124 4.046c-1.828 1.102-3.446 1.651-4.845 1.651-2.287 0-3.432-1.213-3.432-3.645 0-1.782.57-3.858 1.716-6.227 1.145-2.375 2.33-4.108 3.558-5.211.629-.593 2.623-1.739 5.982-3.434 3.358-1.695 5.752-3.063 7.185-4.113.687-.51 1.185-.881 1.502-1.122.312-.24.672-.621 1.072-1.146.4-.52.6-1.011.6-1.464 0-.453-.171-.867-.517-1.252-.341-.38-.785-.573-1.331-.573-.858 0-1.711.086-2.549.255-.844.168-1.716.467-2.618.89a52.85 52.85 0 00-2.379 1.185c-.688.367-1.536.92-2.555 1.652-1.014.737-1.789 1.3-2.315 1.696-.531.394-1.365 1.054-2.511 1.97-1.145.92-1.93 1.545-2.359 1.887-3.203 2.514-5.66 4.56-7.376 6.145-.599.51-.901 1.031-.901 1.57 0 .593.316 1.06.945 1.397.629.337 1.199.395 1.716.169l-.127.255c-.97 2.259-1.457 4.378-1.457 6.357 0 2.148.546 3.896 1.628 5.254 1.087 1.358 2.788 2.032 5.104 2.032 2.086 0 4.519-.905 7.293-2.71 2.773-1.807 5.03-3.714 6.776-5.722a.56.56 0 00.087-.126c.171-.168.259-.211.259-.125.112.227.234.843.365 1.845a34.9 34.9 0 00.473 2.817c.185.877.702 1.686 1.546 2.437.843.746 1.979 1.122 3.407 1.122.858 0 1.999-.226 3.432-.679 1.545-.534 3.729-1.912 6.561-4.132 2.438-1.907 4.617-3.79 6.542-5.644.117 2.663.956 4.994 2.53 6.978 1.702 2.148 4.125 3.222 7.269 3.222a17.69 17.69 0 005.104-.761c1.686-.51 3.193-1.122 4.524-1.844 1.33-.723 2.822-1.744 4.479-3.073a75.1 75.1 0 002.414-2.008 18.675 18.675 0 00-.117 1.902c-.015 1.623.424 3.01 1.306 4.151.887 1.147 2.16 1.715 3.817 1.715 1.974 0 4.095-1.021 6.371-3.073a38.868 38.868 0 006.05-6.925 702.869 702.869 0 016.025-8.645c2.257-3.193 4.134-5.538 5.621-7.036l.088.169c0 .226-.088.549-.259.972-.2.51-.785 1.965-1.76 4.364a243.58 243.58 0 00-2.208 5.591c-.502 1.33-.994 2.933-1.482 4.811-.487 1.878-.716 3.371-.687 4.47 0 2.431.902 3.645 2.701 3.645 1.169 0 2.71-.756 4.611-2.268 1.901-1.513 3.544-3.049 4.933-4.619a223.795 223.795 0 004.953-5.846c1.916-2.331 2.974-3.608 3.174-3.834 1.17-1.44 2.072-2.389 2.7-2.837.488-.337.541-.11.171.68-3.032 6.92-4.548 11.553-4.548 13.898 0 2.346.385 4.031 1.16 4.812.77.775 2.116 1.165 4.031 1.165 1.17 0 3.067-.905 5.684-2.711 2.618-1.806 4.963-3.608 7.035-5.404a133.272 133.272 0 005.64-5.148c.741-.906.736-1.715-.019-2.437-.761-.722-1.58-.727-2.467-.02l.005.02zm-81.322-3.092c.687-1.806 2.345-4.04 4.977-6.694 2.633-2.654 4.86-3.983 6.693-3.983.4 0 .707.198.922.593.214.394.321.804.321 1.228 0 1.16-.828 2.557-2.486 4.194a26.346 26.346 0 01-5.445 4.152c-1.974 1.131-3.432 1.695-4.373 1.695-.516 0-.77-.198-.77-.593 0-.057.059-.255.171-.592h-.01zm267.291-37.94c1.17-.694 2.13-1.392 2.871-2.095.741-.708 1.116-1.426 1.116-2.162 0-.51-.165-.925-.492-1.253a1.623 1.623 0 00-1.18-.486c-.999 0-2.315.51-3.943 1.527-1.629 1.016-2.862 1.907-3.691 2.668-5.606 4.801-10.437 9.612-14.497 14.428a67.639 67.639 0 00-9.95 15.744c-.2.395-.555 1.194-1.072 2.393a73.31 73.31 0 01-1.394 3.073c-.415.848-.766 1.454-1.053 1.82a17.536 17.536 0 01-1.395 1.527c-.443.424-1.028.949-1.759 1.57a46.275 46.275 0 00-2.194 2.018 2.433 2.433 0 00-.4.27 79.674 79.674 0 01-2.661 2.586 154.87 154.87 0 01-4.076 3.665c-1.604 1.396-3.154 2.576-4.655 3.54-1.502.963-2.652 1.44-3.452 1.44-.799 0-1.272-.453-1.413-1.359-.288-1.921 1.058-6.4 4.031-13.431 1.745-4.18 2.633-6.483 2.662-6.906 0-1.527-.644-2.288-1.931-2.288-1.628 0-3.617 1.16-5.961 3.472a104.678 104.678 0 00-3.476 3.834 191.31 191.31 0 00-3.495 4.214 917.174 917.174 0 01-3.067 3.77 8.517 8.517 0 01-.302.381c-2.233 2.654-4.002 4.378-5.318 5.168-1.029.592-1.429.298-1.2-.891.571-2.938 1.59-6.285 3.047-10.042.229-.65.736-1.844 1.521-3.578a70.618 70.618 0 002.018-4.917c.556-1.541.849-2.846.878-3.92 0-1.806-.858-2.712-2.574-2.712-.946 0-1.779.212-2.511.636-.731.424-1.291.896-1.696 1.42-.4.526-.995 1.373-1.779 2.544a49.436 49.436 0 01-2.082 2.904c-.687.905-1.779 2.441-3.281 4.618a477.239 477.239 0 01-4.309 6.145 160.154 160.154 0 01-4.353 5.804c-1.531 1.95-2.954 3.482-4.266 4.599-1.316 1.117-2.388 1.633-3.217 1.546-.829-.11-1.272-.727-1.331-1.845-.058-1.117.151-2.36.624-3.727a27.173 27.173 0 011.779-4.046c.371-.79.386-1.483.044-2.075-.219-.38-.502-.636-.838-.776a2.185 2.185 0 00-.385-.178c-.615-.212-1.195-.048-1.736.486-.112.111-.224.217-.336.328-.215.173-.424.38-.634.617-7.722 7.469-13.605 11.216-17.642 11.216-1.803 0-3.383-.535-4.738-1.609-1.36-1.074-2.038-2.769-2.038-5.085 0-.366.059-1.002.171-1.907.058-.256.38-.516.965-.785a46 46 0 012.272-.954c.931-.366 1.638-.68 2.12-.934a168.06 168.06 0 013.369-1.782c1.53-.79 2.73-1.421 3.602-1.888.873-.467 1.911-1.108 3.11-1.926 1.2-.82 2.131-1.58 2.789-2.288.658-.708 1.228-1.565 1.716-2.586a7.27 7.27 0 00.731-3.179c0-1.55-.522-2.774-1.565-3.665-1.043-.89-2.311-1.334-3.797-1.334-2.316 0-4.719.804-7.205 2.413a27.31 27.31 0 00-6.542 5.933 35.631 35.631 0 00-4.631 7.523c-.298.655-.561 1.29-.785 1.907-7.712 7.412-13.991 11.12-18.836 11.12-1.946 0-3.388-.51-4.334-1.527-.946-1.016-1.414-2.374-1.414-4.07 0-1.974.478-4.044 1.438-6.207a23.317 23.317 0 013.69-5.846 19.68 19.68 0 015.255-4.301c1.999-1.132 3.959-1.695 5.875-1.695.258 0 .526.106.814.317.287.212.429.545.429.997 0 .535-.293 1.132-.878 1.782a27.058 27.058 0 00-1.76 2.182c-.585.804-.877 1.661-.877 2.562 0 .395.214.756.643 1.079.429.322.888.486 1.375.486 1.575 0 3.022-.939 4.353-2.817 1.331-1.878 1.994-3.805 1.994-5.784 0-1.556-.531-2.697-1.589-3.434-1.058-.732-2.472-1.103-4.246-1.103-2.004 0-4.061.439-6.176 1.315a22.793 22.793 0 00-5.855 3.54 32.936 32.936 0 00-4.826 4.936c-1.428 1.806-2.545 3.723-3.344 5.74-.8 2.019-1.199 3.935-1.199 5.741 0 3.078.799 5.616 2.403 7.605 1.599 1.994 3.817 2.986 6.649 2.986 3.544 0 8.019-1.792 13.425-5.38a51.05 51.05 0 005.47-4.07c.175-.148.346-.298.512-.442.097 2.711.936 5.08 2.53 7.094 1.701 2.148 4.124 3.221 7.268 3.221a17.69 17.69 0 005.104-.76c1.687-.51 3.193-1.123 4.524-1.845s2.822-1.743 4.48-3.073a75.98 75.98 0 002.413-2.008 19.27 19.27 0 00-.117 1.903c-.015 1.623.424 3.01 1.306 4.15.887 1.147 2.16 1.715 3.817 1.715 1.975 0 4.095-1.02 6.372-3.072a38.899 38.899 0 006.049-6.926 702.916 702.916 0 016.025-8.644c2.258-3.193 4.134-5.539 5.621-7.036l.088.168c0 .226-.088.55-.258.973-.2.51-.785 1.965-1.76 4.363a249.538 249.538 0 00-2.209 5.592c-.502 1.329-.994 2.933-1.482 4.81-.487 1.879-.716 3.372-.687 4.47 0 2.432.902 3.646 2.701 3.646 1.17 0 2.71-.756 4.611-2.269 1.902-1.512 3.544-3.048 4.934-4.618a224.162 224.162 0 004.952-5.847c1.916-2.33 2.974-3.607 3.174-3.833 1.17-1.44 2.072-2.389 2.701-2.837.487-.337.541-.11.17.68-3.032 6.92-4.548 11.553-4.548 13.898 0 2.346.385 4.031 1.16 4.811.77.776 2.116 1.166 4.032 1.166 1.17 0 3.066-.906 5.684-2.712 2.618-1.806 4.962-3.607 7.034-5.403A134.83 134.83 0 00410.22 53c.19-.053.38-.14.585-.26.4-.482.741-.723 1.029-.723.287 0 .429.212.429.636.029 1.243.078 2.297.151 3.155.073.862.18 1.82.322 2.88.141 1.059.355 1.935.643 2.629a9.894 9.894 0 001.092 1.97 4.136 4.136 0 001.696 1.396c.688.309 1.473.468 2.36.468 1.428 0 3.086-.573 4.977-1.715 1.887-1.146 3.447-2.394 4.675-3.752 1.545-1.608 2.837-3.645 3.88-6.101 1.044-2.457 1.565-4.773 1.565-6.95 0-2.061-.551-3.713-1.652-4.956-1.102-1.242-2.838-1.863-5.212-1.863-.487 0-1.486.183-3.002.549-1.517.366-2.56.578-3.13.635.17-.934.556-2.027 1.16-3.284.6-1.257 1.146-2.273 1.628-3.049.488-.775 1.224-1.907 2.209-3.39.984-1.483 1.55-2.336 1.696-2.562 2.632-3.925 5.255-7.224 7.873-9.892 2.618-2.668 5.996-5.543 10.144-8.62.142-.112.8-.516 1.975-1.21l-.01.015zM326.954 46.95c.687-1.806 2.344-4.04 4.977-6.694 2.632-2.654 4.86-3.983 6.693-3.983.4 0 .707.197.921.592.215.395.322.805.322 1.228 0 1.161-.829 2.558-2.486 4.195a26.4 26.4 0 01-5.445 4.151c-1.975 1.132-3.432 1.696-4.373 1.696-.517 0-.77-.198-.77-.593 0-.057.058-.255.17-.592h-.009zm94.81-2.774c1.072-.467 2.125-.698 3.154-.698 1.228 0 2.203.38 2.915 1.146.716.76 1.072 1.907 1.072 3.434 0 2.88-.999 5.75-3.003 8.601-.687 1.016-1.623 1.989-2.807 2.923-1.185.935-2.267 1.397-3.237 1.397-1.775 0-2.662-1.792-2.662-5.38 0-1.781.205-3.636.624-5.572.414-1.936.848-3.255 1.306-3.963.688-.79 1.565-1.42 2.638-1.888zm69.719 5.977c-.77-.723-1.643-.785-2.618-.193-2.661 2.827-5.24 5.283-7.741 7.373-2.5 2.09-4.226 3.135-5.167 3.135-.458 0-.687-.635-.687-1.907 0-1.131.243-2.437.731-3.92.487-1.483.931-2.634 1.331-3.453a209.83 209.83 0 011.886-3.727 340.952 340.952 0 012.959-5.553c.059-.087.185-.309.385-.68.2-.365.366-.678.493-.934.126-.255.278-.573.448-.953a6.06 6.06 0 00.385-1.103c.088-.352.127-.67.127-.954 0-.481-.166-.89-.492-1.228-.327-.337-.707-.51-1.136-.51-.8 0-1.916.79-3.344 2.374-6.864 7.205-12.368 12.753-16.511 16.654-.171.14-.595.544-1.268 1.208a72.914 72.914 0 01-1.696 1.633c-.458.424-.999.896-1.628 1.42a12.92 12.92 0 01-1.672 1.21c-.488.284-.888.423-1.2.423-.546 0-.814-.467-.814-1.396 0-1.527.385-3.29 1.161-5.298.516-1.213 1.598-3.559 3.261-7.036.429-.934 1.092-2.196 1.994-3.79.901-1.594 1.579-2.967 2.037-4.113.458-1.146.688-2.268.688-3.366 0-1.893-.814-2.842-2.448-2.842-1.774 0-3.831.973-6.176 2.924-1.199.934-2.588 2.123-4.158 3.578a119.75 119.75 0 00-3.988 3.833 451.073 451.073 0 00-3.924 4.046 252.178 252.178 0 01-2.769 2.86c-.629.877-.658 1.667-.088 2.375.571.708 1.346.847 2.316.423.741-.736 2.393-2.499 4.953-5.297 2.559-2.798 4.294-4.619 5.211-5.466a2.41 2.41 0 01.258-.212c2.087-1.95 3.705-2.895 4.846-2.842-.4 1.33-1.229 3.28-2.486 5.847-1.258 2.572-2.072 4.296-2.447 5.168-.659 1.468-1.287 3.284-1.887 5.447-.6 2.162-.902 4.074-.902 5.74 0 2.909 1.073 4.363 3.217 4.363.858 0 1.804-.226 2.833-.679a17.122 17.122 0 002.788-1.526c.829-.564 1.814-1.363 2.959-2.394 1.146-1.03 1.994-1.835 2.555-2.417.555-.578 1.35-1.412 2.378-2.5 1.029-1.088 1.599-1.7 1.716-1.845.171-.168.737-.76 1.697-1.781a72.933 72.933 0 012.51-2.563c.717-.693 1.161-1.04 1.331-1.04.171 0 .2.111.088.337a194.75 194.75 0 01-1.116 3.073 158.8 158.8 0 00-1.117 3.092c-.258.746-.492 1.69-.707 2.817a17.961 17.961 0 00-.321 3.347c0 2.177 1.228 3.26 3.69 3.26 1.258 0 2.545-.308 3.861-.934 1.17-.592 3.129-2.07 5.874-4.425 2.744-2.36 5.177-4.556 7.293-6.589.945-.958 1.028-1.8.258-2.523l-.01.029z" fill="#fff"/></g><defs><clipPath id="clip0_316_844"><path fill="#fff" d="M0 0h492v95H0z"/></clipPath></defs></svg>