<svg width="30" height="29" fill="none" xmlns="http://www.w3.org/2000/svg"><path d="M22.116 6.572c-.878 0-1.588.71-1.588 1.588 0 .879.71 1.583 1.588 1.583a1.586 1.586 0 100-3.171zm-7.052 2.094a6.017 6.017 0 00-6.012 6.01 6.017 6.017 0 006.012 6.012 6.017 6.017 0 006.011-6.011 6.017 6.017 0 00-6.011-6.011z" stroke="#DC7DA6" stroke-width="1.3" stroke-miterlimit="10" stroke-linecap="round"/><path d="M20.413 28.204H9.612c-5.38 0-8.13-2.75-8.13-8.13V9.268c0-5.38 2.75-8.13 8.13-8.13h10.801c5.38 0 8.13 2.75 8.13 8.13v10.808c0 5.38-2.75 8.13-8.13 8.13z" stroke="#DC7DA6" stroke-width="1.3" stroke-miterlimit="10" stroke-linecap="round"/></svg>