<svg width="33" height="33" fill="none" xmlns="http://www.w3.org/2000/svg"><path d="M16.19 6.556c2.315.017 4.283.781 5.85 2.28 1.568 1.504 2.37 3.569 2.388 6.153M16.92 8.591c1.7.125 3.05.71 4.009 1.737.966 1.032 1.434 2.334 1.403 3.868m-4.81-3.498c1.718.09 2.672 1.056 2.763 2.793m-2.703 5.27s.559.049.863-.316l.589-.728c.285-.364.972-.59 1.64-.227.887.496 2.04 1.272 2.825 1.994.43.358.534.89.236 1.45v.012a6.311 6.311 0 01-1.227 1.48h-.012c-.577.484-1.245.759-1.956.532l-.012-.018c-1.276-.358-4.343-1.892-6.3-3.42-3.194-2.477-5.466-6.566-6.098-8.756l-.018-.012c-.231-.705.048-1.355.528-1.922l.012-.012a6.092 6.092 0 011.507-1.206h.012c.571-.292 1.106-.197 1.476.233.48.49 1.391 1.665 2.023 2.775.37.657.14 1.337-.225 1.612l-.74.579c-.371.298-.323.847-.323.847s1.1 4.077 5.2 5.104zM27.994 4.026c-.784-.71-3.955-2.967-11.014-3.003 0 0-8.322-.495-12.38 3.164-2.26 2.22-3.055 5.467-3.134 9.49-.085 4.03-.194 11.574 7.21 13.621h.007v3.122s-.049 1.265.802 1.522c1.026.31 1.628-.65 2.606-1.683a84.249 84.249 0 001.834-2.042c5.066.418 8.954-.537 9.397-.68 1.02-.329 6.81-1.057 7.751-8.601.972-7.777-.467-12.702-3.073-14.922l-.006.012z" stroke="#fff" stroke-width="1.3" stroke-linecap="round" stroke-linejoin="round"/></svg>