<svg width="30" height="30" fill="none" xmlns="http://www.w3.org/2000/svg"><path clip-rule="evenodd" d="M21.507 17.76c-.34-.188-2.02-1.087-2.336-1.214-.316-.126-.541-.193-.79.145-.244.338-.944 1.087-1.15 1.31-.213.223-.414.241-.76.06-.341-.187-1.448-.591-2.732-1.816-.998-.954-1.655-2.113-1.85-2.463-.194-.35 0-.531.183-.7.165-.15.365-.392.548-.585.182-.194.243-.338.37-.562.129-.223.074-.428-.005-.603-.08-.175-.712-1.901-.98-2.602-.23-.621-.723-.657-1.423-.657-.237 0-.614.06-.943.398-.334.332-1.265 1.135-1.326 2.837-.067 1.702 1.125 3.386 1.29 3.627.164.235 2.263 3.923 5.748 5.438 4.678 2.034 6.174.41 6.564-.537.322-.797.346-1.491.261-1.636-.079-.15-.31-.241-.65-.428l-.019-.012zm-6.4-16.616c-7.53 0-13.637 6.06-13.637 13.537 0 2.56.718 4.95 1.958 6.99L.965 28.93l7.555-2.402a13.644 13.644 0 006.594 1.684c7.537 0 13.644-6.06 13.644-13.538 0-7.478-6.107-13.537-13.644-13.537l-.006.006z" stroke="#fff" stroke-width="1.3" stroke-linecap="round" stroke-linejoin="round"/></svg>