<svg width="31" height="32" fill="none" xmlns="http://www.w3.org/2000/svg"><path clip-rule="evenodd" d="M15.189 1.069C7.22 1.069.758 7.779.758 16.053c0 6.734 4.283 12.428 10.171 14.314V19.271H8.732c-.17 0-.305-.14-.305-.323v-3.76c0-.176.135-.322.305-.322h2.197v-3.625c0-2.525 1.975-4.575 4.406-4.575h4.149c.17 0 .304.146.304.322v3.76c0 .176-.14.322-.304.322h-2.455c-.604 0-1.09.505-1.09 1.132v2.664h3.492c.181 0 .322.159.31.347l-.304 3.76a.311.311 0 01-.305.292h-3.187V31c7.616-.408 13.675-6.947 13.675-14.96 0-8.011-6.463-14.971-14.431-14.971z" stroke="#fff" stroke-width="1.3" stroke-linecap="round" stroke-linejoin="round"/></svg>