<svg width="28" height="28" fill="none" xmlns="http://www.w3.org/2000/svg"><path d="M2.064 14.043c0 6.637 5.356 12.024 11.968 12.024.768 0 1.513-.077 2.24-.213a6.949 6.949 0 003.609 1.008c3.854 0 6.981-3.141 6.981-7.02a7.049 7.049 0 00-1.05-3.7c.117-.684.182-1.38.182-2.098 0-6.643-5.356-12.024-11.968-12.024-.751 0-1.49.071-2.206.207a6.91 6.91 0 00-3.626-1.02c-3.86 0-6.987 3.141-6.987 7.02 0 1.349.381 2.61 1.038 3.683a12.2 12.2 0 00-.193 2.133h.012zm12.097-8.54c3.86.23 6.119 1.934 6.342 3.525.105 1.037-.581 1.85-1.778 1.85-1.742 0-1.924-2.34-4.928-2.34-1.355 0-2.5.567-2.5 1.792 0 2.57 9.634 1.079 9.634 6.731 0 3.26-2.599 5.393-6.471 5.393-3.409 0-6.835-1.55-6.817-4.226 0-.808.604-1.544 1.402-1.544 2.006 0 1.989 2.994 5.186 2.994 2.241 0 3.004-1.226 3.004-2.087 0-3.094-9.686-1.196-9.686-7.013 0-3.147 2.575-5.316 6.618-5.08l-.006.006z" stroke="#fff" stroke-width="1.3" stroke-miterlimit="10" stroke-linecap="round"/></svg>