<svg width="31" height="32" fill="none" xmlns="http://www.w3.org/2000/svg"><path clip-rule="evenodd" d="M15.672 1.07c-7.968 0-14.43 6.71-14.43 14.983 0 6.734 4.282 12.428 10.17 14.314V19.271H9.216c-.17 0-.304-.14-.304-.322v-3.76c0-.176.135-.322.304-.322h2.198V11.24c0-2.525 1.974-4.575 4.406-4.575h4.148c.17 0 .305.146.305.322v3.76c0 .176-.141.322-.305.322h-2.455c-.604 0-1.09.505-1.09 1.132v2.665h3.492c.182 0 .322.158.31.346l-.304 3.76a.311.311 0 01-.305.292h-3.187V31c7.617-.407 13.675-6.947 13.675-14.96 0-8.011-6.462-14.97-14.43-14.97z" stroke="#DC7DA6" stroke-width="1.3" stroke-linecap="round" stroke-linejoin="round"/></svg>