<svg width="32" height="33" fill="none" xmlns="http://www.w3.org/2000/svg"><path d="M15.674 6.556c2.315.017 4.283.781 5.85 2.28 1.567 1.504 2.37 3.569 2.387 6.153m-7.508-6.398c1.701.125 3.05.71 4.01 1.737.965 1.032 1.433 2.334 1.403 3.868m-4.811-3.498c1.719.09 2.672 1.056 2.764 2.793m-2.704 5.27s.56.049.863-.316l.59-.728c.285-.364.971-.59 1.64-.227.886.496 2.04 1.272 2.824 1.994.431.358.535.89.237 1.45v.012a6.311 6.311 0 01-1.227 1.48h-.012c-.578.484-1.246.759-1.956.532l-.012-.018c-1.276-.358-4.344-1.892-6.3-3.42-3.195-2.477-5.467-6.566-6.099-8.756l-.018-.012c-.23-.705.049-1.355.529-1.922l.012-.012a6.091 6.091 0 011.506-1.206h.012c.571-.292 1.106-.197 1.476.233.48.49 1.392 1.665 2.023 2.775.37.657.14 1.337-.224 1.612l-.742.579c-.37.298-.321.847-.321.847s1.099 4.077 5.2 5.104zM27.477 4.026c-.784-.71-3.954-2.967-11.013-3.003 0 0-8.322-.495-12.38 3.164-2.26 2.22-3.055 5.467-3.134 9.49-.085 4.03-.195 11.574 7.21 13.621h.006v3.122s-.048 1.265.802 1.522c1.027.31 1.628-.65 2.606-1.683a84.249 84.249 0 001.834-2.042c5.067.418 8.954-.537 9.398-.68 1.02-.329 6.81-1.057 7.75-8.601.973-7.777-.467-12.702-3.073-14.922l-.006.012z" stroke="#DC7DA6" stroke-width="1.3" stroke-linecap="round" stroke-linejoin="round"/></svg>