<svg width="27" height="28" fill="none" xmlns="http://www.w3.org/2000/svg"><path d="M1.546 14.043c0 6.637 5.356 12.024 11.968 12.024.769 0 1.514-.077 2.241-.213a6.949 6.949 0 003.608 1.008c3.855 0 6.982-3.141 6.982-7.02a7.049 7.049 0 00-1.05-3.7c.117-.684.181-1.38.181-2.098C25.476 7.4 20.12 2.02 13.508 2.02c-.75 0-1.49.071-2.206.207a6.911 6.911 0 00-3.625-1.02c-3.86 0-6.988 3.141-6.988 7.02 0 1.349.382 2.61 1.039 3.683a12.2 12.2 0 00-.194 2.133h.012zm12.097-8.54c3.86.23 6.12 1.934 6.342 3.525.106 1.037-.58 1.85-1.777 1.85-1.743 0-1.925-2.34-4.929-2.34-1.355 0-2.499.567-2.499 1.792 0 2.57 9.633 1.079 9.633 6.731 0 3.26-2.599 5.393-6.47 5.393-3.41 0-6.835-1.55-6.818-4.226 0-.808.605-1.544 1.402-1.544 2.007 0 1.99 2.994 5.187 2.994 2.24 0 3.003-1.226 3.003-2.087 0-3.094-9.686-1.196-9.686-7.013 0-3.147 2.576-5.316 6.618-5.08l-.006.006z" stroke="#DC7DA6" stroke-width="1.3" stroke-miterlimit="10" stroke-linecap="round"/></svg>