<svg width="122" height="125" fill="none" xmlns="http://www.w3.org/2000/svg"><g id="Layer_1" clip-path="url(#clip0_316_757)"><path id="Vector" d="M121.545 109.942a1.997 1.997 0 00-1.546-.735h-7.716l.027-6.905a2.05 2.05 0 00.06-.477c0-.164-.021-.313-.055-.463l.057-14.668c0-7.312-5.499-13.353-12.565-14.19V51.517c0-7.157-6.514-12.98-14.519-12.98H67.743c2.126-1.467 4.448-3.167 6.213-4.709 7.858-6.87 11.84-13.338 11.84-19.221C85.796 6.599 79.407.046 71.554 0h-.067c-1.988 0-4.054.528-6.144 1.565a14.76 14.76 0 00-4.327 3.218C58.339 1.781 54.502 0 50.466 0c-7.86 0-14.254 6.553-14.254 14.606 0 4.54 2.375 9.442 7.102 14.624l2.407 2.461c.74.712 1.524 1.431 2.33 2.136 1.788 1.562 4.095 3.254 6.202 4.71H36.72c-8.004 0-14.518 5.822-14.518 12.98v20.988c-7.066.836-12.565 6.877-12.565 14.189v22.513H1.999c-.596 0-1.163.27-1.545.735a2.03 2.03 0 00-.416 1.671l2.297 11.76A2.002 2.002 0 004.297 125h113.405a2 2 0 001.961-1.627l2.298-11.76a2.03 2.03 0 00-.416-1.671zm-70.871-79.16a62.38 62.38 0 01-2.147-1.964l-2.315-2.369c-3.98-4.364-6-8.348-6-11.845 0-5.83 4.599-10.574 10.251-10.574 3.591 0 6.967 1.975 8.807 5.159.36.62 1.017 1 1.726 1 .71 0 1.367-.38 1.726-.998.1-.17.203-.338.308-.5.949-1.447 2.355-2.661 4.069-3.509 1.058-.528 2.674-1.15 4.38-1.15h.04c5.662.033 10.265 4.777 10.265 10.574 0 4.664-3.52 10.106-10.461 16.177-3.063 2.678-8.151 6.007-10.332 7.397-2.164-1.376-7.2-4.664-10.327-7.397l.01-.002zM26.2 67.598h42.733c1.104 0 2-.903 2-2.016a2.009 2.009 0 00-2-2.016H26.198v-12.05c0-4.934 4.718-8.948 10.52-8.948h48.566c5.801 0 10.519 4.014 10.519 8.947v12.05H87.79c-1.104 0-2 .904-2 2.017s.896 2.016 2 2.016h8.012V72.4H26.198v-4.802h.003zM13.635 103.84h49.95c1.104 0 2-.903 2-2.016a2.009 2.009 0 00-2-2.016H13.634V86.69c0-5.656 4.594-10.26 10.242-10.26h73.872l.055.002c.02 0 .039 0 .06-.002h.262c5.648 0 10.242 4.604 10.242 10.251l-.05 13.124H89.449c-1.105 0-2 .904-2 2.017a2.01 2.01 0 002 2.016H108.3l-.02 5.366H13.634v-5.366l.002.002zm102.423 17.127H5.94l-1.51-7.727h113.134l-1.508 7.728h.002zm-35.637-21.16h-9.346c-1.104 0-2 .904-2 2.017s.896 2.016 2 2.016h9.346c1.104 0 2-.903 2-2.016a2.009 2.009 0 00-2-2.016zM36.728 86.906c-1.104 0-2 .904-2 2.017v3.93a2.01 2.01 0 002 2.017c1.105 0 2-.901 2-2.016v-3.931a2.009 2.009 0 00-2-2.016zm12.135 0c-1.104 0-2 .904-2 2.017v3.93c0 1.113.896 2.017 2 2.017s2-.901 2-2.016v-3.931a2.009 2.009 0 00-2-2.016zm12.14 0c-1.104 0-2 .904-2 2.017v3.93c0 1.113.896 2.017 2 2.017s2-.901 2-2.016v-3.931a2.009 2.009 0 00-2-2.016zm12.14 7.964c1.103 0 2-.901 2-2.016v-3.931a2.009 2.009 0 00-2-2.016c-1.105 0-2 .903-2 2.016v3.93c0 1.113.895 2.017 2 2.017zm12.134-7.963c-1.104 0-2 .903-2 2.016v3.93c0 1.113.896 2.017 2 2.017s2-.901 2-2.016v-3.931a2.009 2.009 0 00-2-2.016zm12.14 7.963c1.103 0 2-.901 2-2.016v-3.931a2.009 2.009 0 00-2-2.016c-1.105 0-2 .903-2 2.016v3.93c0 1.113.895 2.017 2 2.017zm-72.828-7.963c-1.104 0-2 .903-2 2.016v3.93c0 1.113.896 2.017 2 2.017s2-.901 2-2.016v-3.931a2.009 2.009 0 00-2-2.016zm55.833-23.34H76.67c-1.104 0-2 .904-2 2.017s.896 2.016 2 2.016h3.753c1.104 0 2-.903 2-2.016a2.009 2.009 0 00-2-2.016zM36.728 51.006c-1.104 0-2 .903-2 2.016v3.93c0 1.114.896 2.017 2 2.017 1.105 0 2-.904 2-2.016V53.02a2.009 2.009 0 00-2-2.016zm12.135 0c-1.104 0-2 .903-2 2.016v3.93c0 1.114.896 2.017 2 2.017s2-.904 2-2.016V53.02a2.009 2.009 0 00-2-2.016zm12.14 0c-1.104 0-2 .903-2 2.016v3.93c0 1.114.896 2.017 2 2.017s2-.904 2-2.016V53.02a2.009 2.009 0 00-2-2.016zm14.14 2.016a2.009 2.009 0 00-2-2.016c-1.105 0-2 .903-2 2.016v3.93c0 1.114.895 2.017 2 2.017 1.103 0 2-.904 2-2.016V53.02zm12.134 3.93v-3.93a2.009 2.009 0 00-2-2.016c-1.104 0-2 .903-2 2.016v3.93c0 1.114.896 2.017 2 2.017s2-.904 2-2.016z" fill="#E799BB"/></g><defs><clipPath id="clip0_316_757"><path fill="#fff" d="M0 0h122v125H0z"/></clipPath></defs></svg>