<svg width="98" height="99" fill="none" xmlns="http://www.w3.org/2000/svg"><g id="Layer_1" clip-path="url(#clip0_316_749)"><path id="Vector" d="M53.771 52.823a2.056 2.056 0 002.779.029c.115-.103 2.51-2.252 5.569-5.375a145.417 145.417 0 005.409 5.346 2.056 2.056 0 002.778.029c1.926-1.72 18.831-17.07 18.831-25.911 0-6.583-5.332-11.94-11.883-11.94a11.763 11.763 0 00-8.32 3.42 11.76 11.76 0 00-8.321-3.42c-2.577 0-4.946.833-6.886 2.246-2-1.441-4.368-2.247-6.87-2.247-6.48 0-11.7 5.22-11.883 11.883-.213 7.792 15.622 22.972 18.797 25.938v.002zm-.717-27.404c.062-.287.17-.556.261-.832.071-.214.12-.438.206-.643.188-.445.42-.87.687-1.275.013-.02.022-.044.035-.067.286-.425.609-.823.974-1.192a7.568 7.568 0 015.396-2.258c2.681 0 5.139 1.372 6.57 3.67.754 1.213 2.747 1.213 3.502 0 1.43-2.298 3.885-3.67 6.569-3.67 4.273 0 7.75 3.493 7.75 7.787 0 4.91-9.318 15.269-16.042 21.525a136.437 136.437 0 01-5.272-5.397c-.01-.011-.013-.027-.024-.038-.633-.68-1.229-1.335-1.791-1.965l-.115-.13c-.383-.432-.74-.844-1.092-1.251-1.747-2.036-3.352-4.06-4.65-5.92a.041.041 0 00-.008-.012c-.22-.313-.416-.616-.616-.92-1.736-2.675-2.307-4.3-2.47-5.185-.036-.227-.072-.451-.065-.65a8.62 8.62 0 01.193-1.58l.002.003zm-6.197-6.263c1.417 0 2.778.385 3.967 1.106-.3.45-.562.923-.803 1.415-.031.064-.065.127-.096.194a12.3 12.3 0 00-.606 1.526c0 .006-.005.013-.005.02-.152.487-.267.99-.363 1.502-.024.124-.044.249-.064.373-.08.52-.14 1.05-.155 1.593v.005c-.026.997-.077 3.382 3.58 8.801.096.143.197.285.297.427.221.32.443.641.688.982 1.8 2.518 3.917 5.046 5.994 7.346a137.454 137.454 0 01-4.094 4.02c-7.169-6.923-16.203-17.38-16.092-21.463.122-4.398 3.525-7.842 7.752-7.842v-.005zM95.934 0H9.594a2.07 2.07 0 00-2.066 2.076v7.76H2.066A2.07 2.07 0 000 11.912c0 1.146.925 2.076 2.066 2.076h5.462v5.304H2.066A2.07 2.07 0 000 21.37a2.07 2.07 0 002.066 2.076h5.462v19.25H2.066A2.07 2.07 0 000 44.772a2.07 2.07 0 002.066 2.076h5.462v5.304H2.066A2.07 2.07 0 000 54.23c0 1.146.925 2.076 2.066 2.076h5.462v19.25H2.066A2.07 2.07 0 000 77.631a2.07 2.07 0 002.066 2.076h5.462v5.304H2.066A2.07 2.07 0 000 87.088c0 1.146.925 2.076 2.066 2.076h5.462v7.76A2.07 2.07 0 009.594 99h86.338A2.07 2.07 0 0098 96.924V2.078A2.072 2.072 0 0095.934 0zM26.11 94.846H11.662v-5.682h5.46a2.07 2.07 0 002.065-2.076 2.072 2.072 0 00-2.066-2.076h-5.46v-5.304h5.46a2.07 2.07 0 002.066-2.076 2.072 2.072 0 00-2.066-2.075h-5.46v-19.25h5.46a2.07 2.07 0 002.066-2.076 2.072 2.072 0 00-2.066-2.076h-5.46v-5.304h5.46a2.07 2.07 0 002.066-2.075 2.072 2.072 0 00-2.066-2.076h-5.46V23.45h5.46a2.07 2.07 0 002.066-2.076 2.072 2.072 0 00-2.066-2.075h-5.46v-5.305h5.46a2.07 2.07 0 002.066-2.075 2.072 2.072 0 00-2.066-2.076h-5.46V4.156h14.447v90.695-.005zm67.76 0H30.241V4.152h63.626v90.694zM70.67 79.03a2.07 2.07 0 002.066-2.076 2.072 2.072 0 00-2.066-2.076H53.44a2.07 2.07 0 00-2.066 2.076c0 1.146.926 2.076 2.066 2.076h17.232zm10.677 3.75h-38.59a2.07 2.07 0 00-2.065 2.076c0 1.146.925 2.076 2.066 2.076h38.589a2.07 2.07 0 002.066-2.076 2.072 2.072 0 00-2.066-2.075z" fill="#E799BB"/></g><defs><clipPath id="clip0_316_749"><path fill="#fff" d="M0 0h98v99H0z"/></clipPath></defs></svg>