<svg width="63" height="106" fill="none" xmlns="http://www.w3.org/2000/svg"><g id="Layer_1" clip-path="url(#clip0_316_751)" fill="#E799BB"><path id="Vector" d="M8.008 106h46.987c4.415 0 8.008-3.627 8.008-8.084V8.084C63.003 3.627 59.41 0 54.995 0H8.008C3.593 0 0 3.627 0 8.084v89.835c0 4.457 3.593 8.084 8.008 8.084V106zm46.99-4.241H8.008c-2.1 0-3.807-1.722-3.807-3.843V90.94c1.138.627 2.422 1.017 3.807 1.017h46.987c1.385 0 2.668-.39 3.807-1.017v6.977c0 2.118-1.707 3.843-3.804 3.843zM4.2 17.888c0-2.12 1.709-3.844 3.807-3.844h46.987c2.1 0 3.807 1.723 3.807 3.843v65.985c0 2.12-1.71 3.843-3.807 3.843H8.005c-2.1 0-3.807-1.723-3.807-3.84V17.888h.003zm3.804-13.65h46.987c2.1 0 3.807 1.723 3.807 3.843v2.74c-1.138-.628-2.422-1.017-3.807-1.017H8.005c-1.385 0-2.668.39-3.807 1.017V8.08c0-2.118 1.71-3.843 3.807-3.843z"/><path id="Vector_2" d="M34.828 94.739h-6.65c-1.16 0-2.1.949-2.1 2.12 0 1.17.94 2.12 2.1 2.12h6.65c1.16 0 2.1-.95 2.1-2.12a2.11 2.11 0 00-2.1-2.12z"/><path id="Vector_3" d="M30.927 66.48a2.1 2.1 0 001.152 0c5.787-1.667 16.73-8.1 16.73-20.536 0-5.926-4.773-10.745-10.643-10.745-2.451 0-4.785.857-6.66 2.404a10.447 10.447 0 00-6.663-2.404c-5.87 0-10.644 4.82-10.644 10.745 0 12.435 10.944 18.87 16.73 20.535h-.002zm-6.084-27.043c1.945 0 3.775.906 5.018 2.485.798 1.012 2.489 1.01 3.287 0 1.243-1.58 3.073-2.485 5.018-2.485 3.555 0 6.443 2.918 6.443 6.507 0 10.994-10.46 15.345-13.1 16.27-2.588-.925-13.114-5.36-13.114-16.27 0-3.589 2.89-6.507 6.445-6.507h.003z"/></g><defs><clipPath id="clip0_316_751"><path fill="#fff" d="M0 0h63v106H0z"/></clipPath></defs></svg>