<svg width="116" height="115" fill="none" xmlns="http://www.w3.org/2000/svg"><g id="Layer_1" clip-path="url(#clip0_316_747)"><path id="Vector" d="M105.124 17.969h3.626v3.593h-3.626V17.97zm1.813 50.312H38.058c-.48 0-.942-.189-1.282-.526a1.79 1.79 0 01-.53-1.27v-57.5c0-.477.19-.935.53-1.272.34-.337.802-.526 1.282-.526h68.879c1.001 0 1.813.805 1.813 1.797v5.391h-3.626v-3.594H39.871v53.907h65.253V25.156h3.626v41.328c0 .992-.812 1.797-1.813 1.797zm-34.44-12.578c-4.304 0-21.75-7.512-21.75-23.36a12.117 12.117 0 013.592-9.017 12.349 12.349 0 019.096-3.56 10.538 10.538 0 019.063 4.821 10.538 10.538 0 019.063-4.821 12.338 12.338 0 019.096 3.56 12.128 12.128 0 013.592 9.018c0 15.847-17.447 23.36-21.751 23.36zm15.591-29.83a8.731 8.731 0 00-6.527-2.514c-3.545 0-6.014 2.007-7.34 5.96a1.811 1.811 0 01-1.721 1.236 1.811 1.811 0 01-1.722-1.236c-1.328-3.953-3.799-5.96-7.343-5.96a8.731 8.731 0 00-6.528 2.514 8.574 8.574 0 00-2.535 6.47c0 13.131 15.064 19.766 18.126 19.766 3.061 0 18.126-6.635 18.126-19.765a8.574 8.574 0 00-2.536-6.471zm15.702 67.5l-3.633.984-.955-3.466 3.633-.984.955 3.467zM1.328 28.814l27.667-7.522V1.797c0-.477.19-.934.53-1.271.34-.337.802-.526 1.283-.526h83.379C115.188 0 116 .805 116 1.797v86.25c0 .992-.812 1.797-1.813 1.797h-83.38c-.48 0-.942-.19-1.281-.526a1.79 1.79 0 01-.53-1.271V32.814l-3.141.865-.972-3.465 4.11-1.133v-4.062L4.011 31.804l20.835 79.187 70.737-19.122.953 3.468-72.504 19.601a1.807 1.807 0 01-2.223-1.281L.058 31.001a1.797 1.797 0 011.268-2.187h.002zM32.62 86.25h79.754V3.594H32.62V86.25zm-9.001 4.058l-14.5-53.902a1.8 1.8 0 011.268-2.198l10.875-2.996.97 3.465-9.15 2.515L27.12 89.378l-3.503.928.002.002z" fill="#E799BB"/></g><defs><clipPath id="clip0_316_747"><path fill="#fff" transform="matrix(-1 0 0 1 116 0)" d="M0 0h116v115H0z"/></clipPath></defs></svg>