<svg width="127" height="101" fill="none" xmlns="http://www.w3.org/2000/svg"><g id="Layer_1" clip-path="url(#clip0_316_755)"><path id="Vector" d="M19.573 64.782a2.675 2.675 0 00-.194-.36 1.457 1.457 0 00-.255-.309 1.917 1.917 0 00-.307-.256 2.36 2.36 0 00-.737-.309 2.07 2.07 0 00-.799 0c-.133.028-.255.07-.379.122a1.917 1.917 0 00-.358.187c-.113.07-.216.165-.307.256a1.385 1.385 0 00-.255.309 2.43 2.43 0 00-.194.36 1.63 1.63 0 00-.113.382 2.059 2.059 0 00.112 1.197c.104.247.256.473.452.669a2.02 2.02 0 001.445.598c.133 0 .267-.012.398-.042.133-.022.267-.062.389-.114.124-.051.236-.115.349-.186.112-.082.215-.165.306-.256a2.07 2.07 0 00.452-.67 2.059 2.059 0 00.113-1.196 1.662 1.662 0 00-.113-.382h-.005zm17.622 11.312c-1-.301-1.888-.6-2.64-.883-4.928-1.856-8.751-3.948-11.362-6.224a2.04 2.04 0 00-2.889.208 2.068 2.068 0 00.208 2.906c2.98 2.596 7.223 4.942 12.609 6.968a45.75 45.75 0 002.889.968c.197.06.396.09.592.09.88 0 1.693-.577 1.962-1.465a2.065 2.065 0 00-1.367-2.57l-.002.002zm74.256-58.573c-3.095-1.156-6.636-1.543-10.522-1.15-3.672.373-7.1 1.494-10.017 3.27-2.259-6.857-7.56-12.437-14.38-14.944-5.929-2.176-12.35-1.896-18.078.792-5.73 2.688-10.07 7.453-12.224 13.422-.892 2.474-1.34 5.2-1.342 8.167-5.661 2.448-10.046 7.263-12.032 13.114-2.63-1.564-5.694-2.553-8.972-2.888-3.559-.358-6.806-.005-9.642 1.062C3.048 42.574-2.76 55.181 1.29 66.474c3.018 8.414 12.236 15.573 27.398 21.28 8.202 3.086 21.653 5.748 22.222 5.859a2.043 2.043 0 001.988-.728c.36-.45 8.897-11.11 13.31-18.984.078-.137.153-.276.228-.412a196.083 196.083 0 002.688 3.42c.393.488.978.761 1.59.761.128 0 .26-.01.393-.035.625-.123 15.42-3.032 24.437-6.403 16.635-6.226 26.745-14.025 30.049-23.18 4.422-12.267-1.92-25.963-14.142-30.53zm-48.81 54.352c-3.498 6.237-9.944 14.619-12.161 17.446-3.517-.733-13.857-2.98-20.359-5.428C16.14 78.626 7.733 72.297 5.144 65.072c-3.292-9.18 1.433-19.427 10.531-22.847 2.24-.846 4.866-1.121 7.794-.822 3.232.33 6.182 1.418 8.535 3.152.264.195.522.398.777.607.56.462 1.318.594 2 .344a2.05 2.05 0 001.313-1.554c1.005-5.348 4.407-9.939 9.092-12.45.573 4.363 1.969 9.168 4.193 14.4l2.526 5.42a117.813 117.813 0 002.578 4.827c2.494 4.422 6.184 9.646 9.237 13.75-.351.657-.71 1.317-1.077 1.972l-.002.002zm3.125-6.125c-2.7-3.696-5.668-7.997-7.722-11.632a110.951 110.951 0 01-2.458-4.598l-2.468-5.3c-2.243-5.277-3.575-10.035-3.997-14.242 3.878-.99 7.942-.61 11.625 1.119 4.273 2.004 7.511 5.573 9.115 10.046 1.955 5.451 1.028 12.754-2.725 21.644l-1.37 2.96v.003zm55.97-19.109c-2.872 7.967-12.168 14.94-27.625 20.723-7.25 2.714-18.832 5.203-22.58 5.976a262.694 262.694 0 01-2.98-3.851c.008-.02.018-.038.03-.06l2.296-4.963c4.203-9.943 5.156-18.258 2.838-24.72-1.978-5.514-5.97-9.912-11.238-12.383-4.266-2.002-8.947-2.542-13.463-1.593.112-1.969.466-3.787 1.067-5.453 1.78-4.933 5.367-8.874 10.103-11.095a19.371 19.371 0 018.249-1.854 19.4 19.4 0 016.692 1.197c6.45 2.367 11.254 8.06 12.538 14.857a2.045 2.045 0 003.31 1.21c.281-.23.57-.454.862-.668 2.622-1.922 5.91-3.129 9.503-3.494 3.262-.327 6.182-.023 8.685.914 10.119 3.783 15.375 15.114 11.716 25.26l-.003-.003zm-6.567-6.767a2.369 2.369 0 00-.185-.36 2.616 2.616 0 00-.255-.31c-.759-.772-2.14-.772-2.899 0a1.805 1.805 0 00-.255.31 2.297 2.297 0 00-.185.36 2.272 2.272 0 00-.122.381c-.021.135-.042.269-.042.403a2.056 2.056 0 002.049 2.061c.552 0 1.065-.216 1.454-.598a2.05 2.05 0 00.594-1.463c0-.134-.011-.268-.03-.403a2.25 2.25 0 00-.122-.381h-.002zm-7.535 4.96c-4.797 4.516-12.105 8.63-21.716 12.226-.43.16-.873.32-1.332.48a2.066 2.066 0 00-1.269 2.623 2.053 2.053 0 001.936 1.39c.223 0 .448-.038.668-.114.489-.17.962-.341 1.42-.51 10.125-3.789 17.893-8.191 23.089-13.08a2.07 2.07 0 00.096-2.913 2.042 2.042 0 00-2.896-.097l.004-.004zM83.933 90.139a2.035 2.035 0 00-2.897-.014l-2.245 2.238-2.245-2.238a2.038 2.038 0 00-2.897.014 2.07 2.07 0 00.015 2.914l2.217 2.21-2.217 2.21c-.806.8-.81 2.105-.014 2.913.4.408.927.61 1.456.61.522 0 1.042-.197 1.44-.595l2.245-2.238 2.246 2.238c.398.398.92.595 1.442.595.527 0 1.056-.202 1.454-.61a2.07 2.07 0 00-.014-2.913l-2.218-2.21 2.218-2.21c.805-.8.81-2.106.014-2.914zM30.002 5.736l-2.217 2.21a2.07 2.07 0 00-.014 2.914 2.04 2.04 0 002.899.014l2.245-2.238 2.245 2.238c.4.398.92.596 1.442.596a2.03 2.03 0 001.454-.61 2.068 2.068 0 00-.014-2.914l-2.217-2.21 2.217-2.21c.803-.8.81-2.105.014-2.913a2.038 2.038 0 00-2.898-.014l-2.246 2.237L30.667.6a2.04 2.04 0 00-2.899.014 2.068 2.068 0 00.014 2.914L30 5.737h.002z" fill="#E799BB"/></g><defs><clipPath id="clip0_316_755"><path fill="#fff" d="M0 0h127v101H0z"/></clipPath></defs></svg>