<svg width="109" height="102" fill="none" xmlns="http://www.w3.org/2000/svg"><path fill-rule="evenodd" clip-rule="evenodd" d="M52.28 17c-12.02 0-21.603 10.116-20.296 21.25a4.088 4.088 0 01-.793 2.92 4.598 4.598 0 01-2.647 1.713c-3.208.77-6.007 2.609-7.873 5.172-1.866 2.563-2.67 5.675-2.264 8.753.406 3.079 1.997 5.913 4.473 7.973 2.476 2.06 5.67 3.205 8.981 3.22H36.4c1.203 0 2.357.447 3.208 1.244.851.797 1.33 1.878 1.33 3.006 0 1.127-.479 2.208-1.33 3.005A4.698 4.698 0 0136.4 76.5h-4.54c-5.215.003-10.272-1.677-14.32-4.757-4.048-3.08-6.839-7.371-7.904-12.152-1.066-4.782-.34-9.761 2.055-14.1 2.395-4.34 6.313-7.773 11.094-9.723.082-6.444 2.566-12.657 7.023-17.566 4.457-4.91 10.605-8.205 17.382-9.316 6.777-1.112 13.755.03 19.727 3.229 5.973 3.199 10.564 8.252 12.978 14.286 6.35 1.64 11.85 5.38 15.481 10.526 3.632 5.147 5.149 11.352 4.27 17.466-.878 6.113-4.092 11.722-9.047 15.787-4.954 4.064-11.314 6.31-17.9 6.32a4.698 4.698 0 01-3.209-1.245c-.85-.797-1.329-1.878-1.329-3.005 0-1.128.478-2.209 1.33-3.006A4.698 4.698 0 0172.699 68c4.56.006 8.956-1.596 12.313-4.487 3.357-2.891 5.429-6.86 5.803-11.117.375-4.257-.975-8.49-3.781-11.857-2.806-3.367-6.863-5.621-11.363-6.314a4.716 4.716 0 01-2.325-1.05 4.258 4.258 0 01-1.35-2.061c-1.177-4.054-3.745-7.632-7.308-10.183-3.563-2.55-7.924-3.932-12.408-3.931zm6.807 35.769l5.867 5.49c.422.395.923.708 1.474.921a4.809 4.809 0 003.475-.002 4.571 4.571 0 001.472-.923 4.25 4.25 0 00.983-1.38 4.02 4.02 0 00.344-1.627 4.02 4.02 0 00-.346-1.627 4.246 4.246 0 00-.986-1.38l-12.814-11.98c-1.063-.994-2.504-1.552-4.007-1.552-1.502 0-2.943.558-4.006 1.552L37.728 52.246c-.851.797-1.33 1.878-1.33 3.005 0 1.128.477 2.209 1.328 3.006a4.699 4.699 0 003.209 1.247 4.7 4.7 0 003.21-1.244l5.867-5.491V89.25c0 1.127.478 2.208 1.329 3.005a4.698 4.698 0 003.208 1.245 4.698 4.698 0 003.209-1.245c.85-.797 1.329-1.878 1.329-3.005V52.769z" fill="#DC7DA6"/></svg>